<?xml version="1.0" encoding="utf-8"?>
<!-- Generator: Adobe Illustrator 23.0.2, SVG Export Plug-In . SVG Version: 6.00 Build 0)  -->
<svg version="1.1" baseProfile="tiny" id="Layer_1" xmlns="http://www.w3.org/2000/svg" xmlns:xlink="http://www.w3.org/1999/xlink"
	 x="0px" y="0px" viewBox="0 0 24 24" xml:space="preserve">
<g>
	<g>
		<path d="M2.1,16.1C0.2,11.4,1.7,6,6,3.1s9.9-2.3,13.5,1.2l0.8-0.6C16.4-0.2,10.2-0.9,5.4,2.3S-1,11.5,1.2,16.6L2.1,16.1z"/>
		<path d="M21.9,7.9c1.9,4.6,0.3,10.1-3.9,13s-9.9,2.3-13.5-1.2l-0.8,0.6c3.9,3.9,10.1,4.7,14.9,1.5s6.4-9.3,4.2-14.4L21.9,7.9z"/>
	</g>
	<circle cx="1.6" cy="16.3" r="1.3"/>
	<circle cx="22.3" cy="7.7" r="1.3"/>
</g>
<g>
	<path d="M11.6,16.9v-1.2c-0.7,0-1.4-0.2-1.8-0.5l0.3-0.8c0.4,0.3,1.1,0.5,1.7,0.5c0.9,0,1.4-0.5,1.4-1.2s-0.5-1.1-1.4-1.4
		c-1.2-0.5-2-1-2-2.1c0-1,0.7-1.8,1.8-1.9V7.1h0.7v1.2c0.7,0,1.2,0.2,1.6,0.4l-0.3,0.8C13.4,9.3,12.9,9,12.1,9c-0.9,0-1.3,0.6-1.3,1
		c0,0.6,0.4,0.9,1.5,1.4c1.2,0.5,1.9,1.1,1.9,2.2c0,0.9-0.7,1.8-1.9,2v1.2h-0.8V16.9z"/>
</g>
</svg>
