<?xml version="1.0" encoding="utf-8"?>
<!-- Generator: Adobe Illustrator 23.0.2, SVG Export Plug-In . SVG Version: 6.00 Build 0)  -->
<svg version="1.1" id="Layer_1" xmlns="http://www.w3.org/2000/svg" xmlns:xlink="http://www.w3.org/1999/xlink" x="0px" y="0px"
	 viewBox="0 0 107.7 107.7" style="enable-background:new 0 0 107.7 107.7;" xml:space="preserve">
<style type="text/css">
	.st0{fill:#D43747;}
	.st1{fill-rule:evenodd;clip-rule:evenodd;fill:#FFFFFF;}
</style>
<polygon class="st0" points="10.6,28.9 10.6,78.9 53.9,103.9 97.2,78.9 97.2,28.9 53.9,3.9 "/>
<g>
	<path class="st1" d="M31.7,63.4c0-0.7,0.3-1.1,0.9-1.1h5.1c2.2,0,3.2,0.1,5-1.4c0.4-0.3,0.8-0.7,1.1-1.1c1.6-1.9,2.2-4.3,2.8-6.8
		c1.2-4.8,3.1-10,8.1-12c2.9-1.2,6.8-0.9,9.9-0.9h1.9l0-3.6c0-1.8,0.4-2.1,1.7-0.9l7,6.7c0.9,0.8,0.7,1.3-0.1,2.1l-7,6.7
		c-1.2,1.2-1.8,0.9-1.7-0.8V46c-12.2-0.2-11.7,0.6-15.1,12.3c-1.3,3.6-3.2,6.2-5.6,7.8c-2.6,1.7-4.9,2.3-7.9,2.3h-3.7
		c-2.1,0-2.4-0.1-2.4-2.3V63.4L31.7,63.4z M31.8,44.3c0,0.7,0.3,1.1,0.9,1.1H38c2.2,0,3.2-0.1,5,1.4c0.4,0.3,0.8,0.7,1.1,1.1
		c0.4,0.5,0.8,1,1.1,1.6c0.5-1.7,1.2-3.3,2.1-4.9c0.3-0.4,0.5-0.8,0.8-1.3c-0.6-0.6-1.3-1.2-2-1.7c-2.6-1.7-4.9-2.3-7.9-2.3h-4
		c-2.1,0-2.4,0.1-2.4,2.3V44.3L31.8,44.3z M51,63.8c1.1,1.2,2.4,2.2,4.1,2.9c2.9,1.2,6.6,0.9,9.7,0.9h1.9l0,3.6
		c0,1.8,0.4,2.1,1.7,0.9l7-6.7c0.9-0.8,0.7-1.3-0.1-2.1l-7-6.7c-1.2-1.2-1.8-0.9-1.7,0.8v4.3c-8.9,0.1-11-0.2-12.7-5
		c-0.1,0.3-0.2,0.8-0.7,2.4c0,0,0,0.1,0,0.1l0,0C52.6,61,51.9,62.5,51,63.8L51,63.8z"/>
</g>
</svg>
