<?xml version="1.0" encoding="utf-8"?>
<!-- Generator: Adobe Illustrator 23.0.2, SVG Export Plug-In . SVG Version: 6.00 Build 0)  -->
<svg version="1.1" id="Layer_1" xmlns="http://www.w3.org/2000/svg" xmlns:xlink="http://www.w3.org/1999/xlink" x="0px" y="0px"
	 viewBox="0 0 107.7 107.7" style="enable-background:new 0 0 107.7 107.7;" xml:space="preserve">
<style type="text/css">
	.st0{fill:#D43747;}
	.st1{fill:none;}
	.st2{fill:#FFFFFF;}
</style>
<polygon class="st0" points="10.6,28.9 10.6,78.9 53.9,103.9 97.2,78.9 97.2,28.9 53.9,3.9 "/>
<g>
	<rect x="32.9" y="32.9" class="st1" width="41.9" height="41.9"/>
</g>
<g>
	<g>
		<path class="st2" d="M45.4,45.4h-4.2v14.8c0,2.3,1.9,4.2,4.2,4.2h19v-4.2h-19V45.4z"/>
		<path class="st2" d="M70.8,34.8H53.9c-2.3,0-4.2,1.9-4.2,4.2v12.7c0,2.3,1.9,4.2,4.2,4.2h16.9c2.3,0,4.2-1.9,4.2-4.2V39.1
			C75,36.7,73.1,34.8,70.8,34.8z M70.8,51.7H53.9v-8.5h16.9V51.7z"/>
		<path class="st2" d="M36.9,53.9h-4.2v14.8c0,2.3,1.9,4.2,4.2,4.2h19v-4.2h-19V53.9z"/>
	</g>
</g>
</svg>
