<?xml version="1.0" encoding="utf-8"?>
<!-- Generator: Adobe Illustrator 23.0.2, SVG Export Plug-In . SVG Version: 6.00 Build 0)  -->
<svg version="1.1" id="Layer_1" xmlns="http://www.w3.org/2000/svg" xmlns:xlink="http://www.w3.org/1999/xlink" x="0px" y="0px"
	 viewBox="0 0 107.7 107.7" style="enable-background:new 0 0 107.7 107.7;" xml:space="preserve">
<style type="text/css">
	.st0{fill:#D43747;}
	.st1{fill:#FFFFFF;}
</style>
<polygon class="st0" points="10.6,28.9 10.6,78.9 53.9,103.9 97.2,78.9 97.2,28.9 53.9,3.9 "/>
<g>
	<g>
		<g>
			<path class="st1" d="M35.6,58.4v-1.9h3.7v11.4h-2.2v-9.5H35.6z"/>
			<path class="st1" d="M45.3,65.9c0.3,0.3,0.4,0.6,0.4,0.9c0,0.4-0.1,0.7-0.4,1c-0.3,0.3-0.6,0.4-1,0.4s-0.7-0.1-1-0.4
				c-0.3-0.3-0.4-0.6-0.4-1c0-0.4,0.1-0.7,0.4-0.9c0.3-0.3,0.6-0.4,1-0.4S45.1,65.6,45.3,65.9z"/>
			<path class="st1" d="M52.9,57.2l-2.3,3.3l0,0c0.2-0.1,0.5-0.2,0.9-0.2c0.5,0,1,0.1,1.4,0.3c0.4,0.2,0.8,0.5,1.1,0.8
				s0.5,0.8,0.7,1.2c0.2,0.5,0.2,0.9,0.2,1.4c0,0.6-0.1,1.1-0.3,1.6c-0.2,0.5-0.5,0.9-0.8,1.3c-0.4,0.4-0.8,0.6-1.3,0.8
				c-0.5,0.2-1,0.3-1.6,0.3c-0.6,0-1.1-0.1-1.6-0.3c-0.5-0.2-0.9-0.5-1.3-0.8c-0.4-0.3-0.6-0.8-0.8-1.2c-0.2-0.5-0.3-1-0.3-1.6
				c0-0.6,0.1-1.3,0.4-1.9c0.3-0.6,0.6-1.3,1-1.9l3-4.5L52.9,57.2z M52.1,65.7c0.3-0.4,0.5-0.9,0.5-1.5c0-0.5-0.2-1-0.5-1.5
				c-0.3-0.4-0.8-0.7-1.3-0.7s-1,0.2-1.3,0.7c-0.3,0.4-0.5,0.9-0.5,1.5c0,0.5,0.2,1,0.5,1.5c0.3,0.4,0.8,0.7,1.3,0.7
				S51.8,66.2,52.1,65.7z"/>
			<path class="st1" d="M57.5,58.4v-1.9h3.7v11.4H59v-9.5H57.5z"/>
			<path class="st1" d="M65.5,60.9c-0.3-0.5-0.4-1-0.4-1.5c0-0.5,0.1-0.9,0.3-1.3c0.2-0.4,0.4-0.7,0.7-1c0.3-0.3,0.7-0.5,1.1-0.7
				c0.4-0.2,0.8-0.2,1.3-0.2c0.5,0,0.9,0.1,1.3,0.2c0.4,0.2,0.8,0.4,1.1,0.7c0.3,0.3,0.5,0.6,0.7,1c0.2,0.4,0.2,0.8,0.2,1.3
				c0,0.5-0.1,1-0.4,1.5c-0.3,0.5-0.6,0.8-1.1,1c0.6,0.2,1.1,0.6,1.4,1.1c0.3,0.5,0.5,1.1,0.5,1.8c0,0.5-0.1,1-0.3,1.4
				c-0.2,0.4-0.5,0.8-0.8,1.1s-0.7,0.5-1.2,0.7c-0.4,0.2-0.9,0.2-1.4,0.2c-0.5,0-0.9-0.1-1.4-0.2c-0.4-0.2-0.8-0.4-1.2-0.7
				c-0.3-0.3-0.6-0.6-0.8-1.1c-0.2-0.4-0.3-0.9-0.3-1.4c0-0.7,0.2-1.3,0.5-1.8c0.3-0.5,0.8-0.9,1.4-1.1
				C66.1,61.7,65.7,61.4,65.5,60.9z M67.4,63.4c-0.3,0.4-0.4,0.8-0.4,1.2s0.1,0.9,0.4,1.2c0.3,0.4,0.6,0.5,1.1,0.5
				c0.4,0,0.8-0.2,1.1-0.5c0.3-0.4,0.4-0.8,0.4-1.2s-0.1-0.9-0.4-1.2c-0.3-0.4-0.6-0.5-1.1-0.5C68,62.9,67.6,63,67.4,63.4z
				 M67.5,58.3c-0.2,0.3-0.4,0.7-0.4,1.1c0,0.4,0.1,0.8,0.4,1.1c0.2,0.3,0.6,0.5,1,0.5c0.4,0,0.7-0.2,1-0.5s0.4-0.7,0.4-1.1
				c0-0.4-0.1-0.8-0.4-1.1c-0.2-0.3-0.6-0.5-1-0.5C68,57.8,67.7,58,67.5,58.3z"/>
		</g>
	</g>
	<g>
		<path class="st1" d="M38.1,52.4H36V39.5h2.1V52.4z"/>
		<path class="st1" d="M44.6,45c0.5,0.2,0.9,0.5,1.2,0.8c0.3,0.4,0.6,0.8,0.8,1.3c0.2,0.5,0.3,1,0.3,1.6c0,0.6-0.1,1.1-0.3,1.6
			c-0.2,0.5-0.5,0.9-0.8,1.3c-0.3,0.4-0.8,0.6-1.2,0.8c-0.5,0.2-1,0.3-1.6,0.3s-1.1-0.1-1.6-0.3c-0.5-0.2-0.9-0.5-1.2-0.8
			s-0.6-0.8-0.8-1.3c-0.2-0.5-0.3-1-0.3-1.6c0-0.6,0.1-1.1,0.3-1.6c0.2-0.5,0.5-0.9,0.8-1.3s0.8-0.6,1.2-0.8c0.5-0.2,1-0.3,1.6-0.3
			S44.1,44.8,44.6,45z M41.8,47.2c-0.3,0.4-0.5,0.9-0.5,1.5c0,0.5,0.2,1,0.5,1.4c0.3,0.4,0.7,0.6,1.3,0.6c0.5,0,0.9-0.2,1.3-0.6
			c0.3-0.4,0.5-0.9,0.5-1.4c0-0.5-0.2-1-0.5-1.5c-0.3-0.4-0.7-0.6-1.3-0.6C42.5,46.6,42.1,46.8,41.8,47.2z"/>
		<path class="st1" d="M50.1,45.7L50.1,45.7c0.5-0.7,1.1-1,1.9-1c0.3,0,0.6,0.1,0.9,0.2l-0.3,2c-0.3-0.2-0.5-0.3-0.9-0.3
			c-0.3,0-0.6,0.1-0.8,0.2c-0.2,0.1-0.4,0.3-0.5,0.6c-0.1,0.2-0.2,0.5-0.2,0.8c0,0.3-0.1,0.6-0.1,0.9v3.3h-2.1v-7.4h2.1V45.7z"/>
		<path class="st1" d="M55.2,49c0,0.3,0,0.5,0.1,0.7s0.1,0.4,0.2,0.6c0.1,0.2,0.3,0.3,0.5,0.5c0.2,0.1,0.4,0.2,0.7,0.2
			c0.3,0,0.6-0.1,0.8-0.3c0.2-0.2,0.4-0.4,0.6-0.7l2,0.3c-0.3,0.7-0.7,1.3-1.3,1.7c-0.6,0.4-1.3,0.6-2.1,0.6c-1.1,0-2-0.4-2.7-1.1
			s-1-1.7-1-2.8c0-1.2,0.3-2.1,0.9-2.9c0.6-0.8,1.5-1.1,2.7-1.1c0.6,0,1.1,0.1,1.6,0.3c0.4,0.2,0.8,0.5,1.1,0.9
			c0.3,0.4,0.5,0.8,0.6,1.3c0.1,0.5,0.2,1,0.2,1.6V49H55.2z M58.1,47.7c-0.1-0.4-0.2-0.8-0.5-1.1c-0.2-0.3-0.6-0.4-0.9-0.4
			c-0.4,0-0.7,0.1-1,0.4c-0.2,0.3-0.4,0.6-0.5,1.1H58.1z"/>
		<path class="st1" d="M63.2,45.6L63.2,45.6c0.2-0.3,0.5-0.5,0.8-0.7c0.3-0.2,0.7-0.2,1-0.2c0.9,0,1.7,0.4,2.1,1.2
			c0.2-0.4,0.5-0.6,0.9-0.9c0.4-0.2,0.8-0.3,1.2-0.3c0.5,0,0.8,0.1,1.1,0.2c0.3,0.2,0.6,0.4,0.7,0.7c0.2,0.3,0.3,0.6,0.4,1
			c0.1,0.4,0.1,0.8,0.1,1.2v4.6h-2.1v-3.9c0-0.3,0-0.6,0-0.8c0-0.2-0.1-0.4-0.1-0.6c-0.1-0.2-0.2-0.4-0.3-0.5
			c-0.1-0.1-0.3-0.2-0.6-0.2c-0.3,0-0.5,0.1-0.6,0.2c-0.2,0.2-0.3,0.3-0.3,0.6c-0.1,0.2-0.1,0.5-0.1,0.7s0,0.5,0,0.8v3.6h-2.1v-3.8
			c0-0.3,0-0.6,0-0.9c0-0.2-0.1-0.5-0.1-0.7c-0.1-0.2-0.2-0.4-0.3-0.5c-0.1-0.1-0.3-0.2-0.5-0.2c-0.3,0-0.5,0.1-0.6,0.2
			c-0.2,0.1-0.3,0.3-0.3,0.5c-0.1,0.2-0.1,0.5-0.1,0.7c0,0.3,0,0.5,0,0.9v3.6h-2.1v-7.4h2.1V45.6z"/>
	</g>
</g>
</svg>
