<?xml version="1.0" encoding="utf-8"?>
<!-- Generator: Adobe Illustrator 23.0.2, SVG Export Plug-In . SVG Version: 6.00 Build 0)  -->
<svg version="1.1" id="Layer_1" xmlns="http://www.w3.org/2000/svg" xmlns:xlink="http://www.w3.org/1999/xlink" x="0px" y="0px"
	 viewBox="0 0 107.7 107.7" style="enable-background:new 0 0 107.7 107.7;" xml:space="preserve">
<style type="text/css">
	.st0{fill:#D43747;}
	.st1{fill:#FFFFFF;}
</style>
<g>
	<circle class="st0" cx="50.8" cy="53.9" r="47"/>
	<path class="st1" d="M88.5,59.1l-3.9-5.8c-1.4-2.1-4.3-2.7-6.4-1.3L62.8,62.3c-2.1,1.4-2.7,4.3-1.3,6.4l3.9,5.8l-1.9,1.3l7.7,11.6
		l13.5,7.7l3.9,5.8l15.4-10.3l-3.9-5.8l-1.9-15.4l-7.7-11.6L88.5,59.1z M65.4,66.2l15.4-10.3l3.9,5.8l-3.9,2.6l-2.6-3.9l-1.9,1.3
		l2.6,3.9L75,68.1l-2.6-3.9l-1.9,1.3l2.6,3.9L69.2,72L65.4,66.2z M93.7,71l1.9,15.4l1.9,2.8l-7.7,5.1l-1.9-2.8l-13.5-7.7l-4.5-6.8
		l19.3-12.9L93.7,71z"/>
</g>
</svg>
