<?xml version="1.0" encoding="utf-8"?>
<!-- Generator: Adobe Illustrator 23.0.2, SVG Export Plug-In . SVG Version: 6.00 Build 0)  -->
<svg version="1.1" id="Layer_1" xmlns="http://www.w3.org/2000/svg" xmlns:xlink="http://www.w3.org/1999/xlink" x="0px" y="0px"
	 viewBox="0 0 24 24" style="enable-background:new 0 0 24 24;" xml:space="preserve">
<style type="text/css">
	.st0{fill-rule:evenodd;clip-rule:evenodd;}
</style>
<path class="st0" d="M24,19h-1v-2.2C21.1,21,16.9,24,12,24C5.4,24,0,18.6,0,12h1c0,6.1,4.9,11,11,11c4.7,0,8.6-2.9,10.2-7H20v-1h4
	V19z M13,19h-1.9c-0.3-1-0.4-1.6-1.2-1.9h0c-0.7-0.3-1.3,0.1-2.2,0.5l-1.3-1.3c0.4-0.9,0.8-1.4,0.5-2.2C6.6,13.4,6,13.3,5,12.9v-1.9
	c1-0.3,1.6-0.4,1.9-1.2c0.3-0.7-0.1-1.2-0.5-2.2l1.3-1.3c0.9,0.4,1.4,0.8,2.2,0.5l0,0C10.6,6.6,10.7,6,11.1,5H13
	c0.3,1,0.4,1.6,1.2,1.9l0,0c0.7,0.3,1.3-0.1,2.2-0.5l1.3,1.3c-0.4,0.9-0.8,1.4-0.5,2.2v0c0.3,0.7,0.9,0.8,1.9,1.2v1.9
	c-1,0.3-1.6,0.4-1.9,1.2c-0.3,0.7,0.1,1.2,0.5,2.2l-1.3,1.3c-0.9-0.4-1.4-0.8-2.2-0.5C13.4,17.4,13.3,18,13,19z M12,14.3
	c-1.3,0-2.3-1-2.3-2.3s1-2.3,2.3-2.3s2.3,1,2.3,2.3S13.3,14.3,12,14.3z M4,9H0V5h1v2.2C2.9,3,7.1,0,12,0c6.6,0,12,5.4,12,12h-1
	c0-6.1-4.9-11-11-11C7.3,1,3.4,3.9,1.8,8H4C4,8,4,9,4,9z"/>
</svg>
