<?xml version="1.0" encoding="utf-8"?>
<!-- Generator: Adobe Illustrator 23.0.2, SVG Export Plug-In . SVG Version: 6.00 Build 0)  -->
<svg version="1.1" baseProfile="tiny" id="Layer_1" xmlns="http://www.w3.org/2000/svg" xmlns:xlink="http://www.w3.org/1999/xlink"
	 x="0px" y="0px" viewBox="0 0 24 24" xml:space="preserve">
<g>
	<g>
		<path d="M18.3,20.7c-4,2.9-9.7,2.7-13.5-0.8s-4.5-9.1-2-13.4L2,5.8c-2.9,4.7-2.2,11,2.1,14.8s10.5,4.1,14.9,0.8L18.3,20.7z"/>
		<path d="M5.7,3.3c4-2.9,9.7-2.7,13.5,0.8s4.5,9.1,2,13.4l0.7,0.7c2.9-4.7,2.2-11-2.1-14.8S9.4-0.7,5,2.6L5.7,3.3z"/>
	</g>
	<circle cx="18.6" cy="21.1" r="1.2"/>
	<circle cx="5.4" cy="3" r="1.2"/>
</g>
</svg>
