<?xml version="1.0" encoding="utf-8"?>
<!-- Generator: Adobe Illustrator 23.0.2, SVG Export Plug-In . SVG Version: 6.00 Build 0)  -->
<svg version="1.1" id="ae61722e-c8df-4f74-981e-cb59bb83fec6"
	 xmlns="http://www.w3.org/2000/svg" xmlns:xlink="http://www.w3.org/1999/xlink" x="0px" y="0px" viewBox="0 0 1033 603"
	 style="enable-background:new 0 0 1033 603;" xml:space="preserve">
<style type="text/css">
	.st0{fill:#FEB8B8;}
	.st1{fill:#2F2E41;}
	.st2{fill:#E6E6E6;}
	.st3{fill:#3F3D56;}
	.st4{opacity:0.2;enable-background:new    ;}
	.st5{fill:#D43747;}
	.st6{fill:#FFFFFF;}
	.st7{fill:#CCCCCC;}
	.st8{fill:url(#SVGID_1_);}
	.st9{fill:#FBBEBE;}
	.st10{opacity:0.1;enable-background:new    ;}
	.st11{fill:#9F616A;}
	.st12{fill:#D0CDE1;}
</style>
<g>
	<path class="st0" d="M322,284.8l-13.4-8.4l8.2-20.9c1.6-4.1,5.5-6.9,9.9-7.1l0,0c6.2-0.3,11.5,4.4,11.8,10.7
		c0.1,2.7-0.7,5.4-2.4,7.5L322,284.8z"/>
	<polygon class="st0" points="251.5,511.6 233,503.6 243,482.9 257.9,491.7 	"/>
	<path class="st1" d="M244.3,544.5L223,522.9c-4.2-4.3-4.2-11.2,0.1-15.4l10.7-10.7c1.4-1.4,3.6-1.4,4.9,0c0.3,0.2,0.5,0.5,0.6,0.9
		c2.6,5.1,6.2,7.9,10.9,8c2.8,0.1,3.2,0,3.9,2.7l-0.9,20.3l3.7,4.2c2.8,3.2,2.9,8.1,0.1,11.4l0,0c-3.1,3.6-8.6,4-12.2,0.9
		C244.6,544.9,244.4,544.7,244.3,544.5z"/>
	<path class="st1" d="M259.1,495.3l-19.3-9.2l15.9-100.6l-77.9,6.5c-24.6,2.1-44.9-20-40-44.2c1.5-7.3,5.5-13.9,11.3-18.5l77.1,9.2
		l50,6.9c10.3,1.4,18.6,9.1,20.8,19.2l0,0c0.9,3.9,0.8,8-0.3,11.9L259.1,495.3z"/>
	<circle class="st2" cx="125.4" cy="481.4" r="121.6"/>
	<path class="st3" d="M309.4,271.4l19.3,9.2L298,331.1c-2.7,4.5-7.9,6.9-13.2,6.2l0,0c-5-0.7-9.1-4.3-10.6-9.1L240,262.6
		c-4.5-8.6-1.2-19.2,7.4-23.6c0.8-0.4,1.5-0.7,2.3-1h0c9.1-3.2,19.1,1.6,22.3,10.8c0,0.1,0.1,0.2,0.1,0.4l16.3,50L309.4,271.4z"/>
	<path class="st1" d="M225.1,246.9c6.3,0.9,12.8-1.2,18-4.8c5.3-3.6,9.4-8.6,12.9-13.9c5.9-9,10.2-18.9,12.6-29.4
		c4.1,4.9,10.5,7.2,16.8,5.8c10-2.2,16-13.9,14-24c-1.9-10.1-10.2-18-19.6-22.1c-9.4-4-19.9-4.7-30.2-4.7c-6.8,0-13.6,0.3-20,2.6
		c-6.3,2.3-12.2,6.9-14.4,13.3c-1.4,4-1.4,8.4-3,12.3c-2.9,7.1-10.5,11-17.6,13.9s-14.8,5.9-19,12.4c-4.7,7.3-3.4,17.4,1.8,24.4
		c5.2,6.9,13.6,11,22.1,12.7c8.5,1.7,17.3,1.3,26,0.8"/>
	<polygon class="st0" points="222.1,511.6 203.6,503.6 213.7,482.9 228.6,491.7 	"/>
	<path class="st1" d="M214.9,544.5l-21.2-21.7c-4.2-4.3-4.2-11.2,0.1-15.4l10.7-10.7c1.4-1.4,3.6-1.4,4.9,0c0.3,0.2,0.5,0.5,0.6,0.9
		c2.6,5.1,6.2,7.9,10.9,8c2.8,0.1,3.2,0,3.9,2.7l-0.9,20.3l3.7,4.2c2.8,3.2,2.9,8.1,0.1,11.4l0,0c-3.1,3.6-8.6,4-12.2,0.9
		C215.3,544.9,215.1,544.7,214.9,544.5z"/>
	<path class="st1" d="M227.3,500.3l-19.3-9.2l15.9-100.6l-77.9,6.5c-24.6,2.1-44.9-20-40-44.2c1.5-7.3,5.5-13.9,11.3-18.5l77.1,9.2
		l50,6.9c10.3,1.4,18.6,9.1,20.8,19.2l0,0c0.9,3.9,0.8,8-0.3,11.9L227.3,500.3z"/>
	<circle class="st0" cx="255.4" cy="194.7" r="30.6"/>
	<path class="st0" d="M234,266.4L221.4,232c8.9-9.5,10.9-21.1,7.5-34.4l36,20.1L234,266.4z"/>
	<path class="st3" d="M208.8,347.7c-22.4,7.5-52,5-89.1-7.7c-3.4-1.2-5.2-4.9-4-8.3c0.3-0.8,0.7-1.5,1.2-2.1
		c25-29.4,47.5-58.2,66-86.1c7-9,16.9-15.3,28.1-17.8l17.1-3.8l26,13.4l6.8,3.8c6.5,3.7,8.8,12,5.1,18.5c-0.1,0.2-0.2,0.4-0.4,0.6
		c-10.4,25.5-24,48.8-47.6,65L208.8,347.7z"/>
	<path class="st1" d="M256.1,188.8c3.8,6,9.3,10.6,15.9,13.2c4.7,1.8,10.6,2.2,14.1-1.3c2.5-2.6,3-6.6,2.7-10.2
		c-1.1-11.2-9.6-21-20.1-25.3s-22.6-3.3-33.1,1c-9.9,4-19.3,12.3-19.8,22.9c-0.3,5.5,1.7,11.5-1.2,16.1c-2.2,3.5-6.5,4.9-10.3,6.4
		c-3.8,1.5-7.9,4-8.7,8c-0.5,2.7,0.7,5.6,2.6,7.6c2,1.9,4.4,3.4,7.1,4.4c6.2,2.7,13.1,4.3,19.8,3.3c6.7-1,13.2-5.1,15.8-11.3
		c2-4.8,1.6-10.2,1.4-15.4c-0.2-5.2-0.2-10.8,2.6-15.2c2.8-4.4,9.2-6.9,13.4-3.7"/>
	<path class="st4" d="M181.6,276.9c0,0,24.3,60.4,30.2,63.7c5.9,3.4,5.9-5,5.9-5L181.6,276.9z"/>
	<path class="st5" d="M372.4,257.2l-147.6,24c-1.5,0.2-2.9-0.8-3.2-2.3l-6-36.6c-0.2-1.5,0.8-2.9,2.3-3.2l147.6-24
		c1.5-0.2,2.9,0.8,3.2,2.3l6,36.6C374.9,255.5,373.9,257,372.4,257.2z"/>
	<circle class="st6" cx="240.6" cy="257.1" r="11.6"/>
	<path class="st6" d="M265.8,245.1c-1.1,0.2-1.8,1.2-1.6,2.2s1.2,1.8,2.2,1.6l0,0l90.2-14.7c1.1-0.2,1.8-1.2,1.6-2.2
		c-0.2-1.1-1.2-1.8-2.2-1.6c0,0,0,0,0,0L265.8,245.1z"/>
	<path class="st6" d="M267.7,256.6c-1.1,0.2-1.8,1.2-1.6,2.2s1.2,1.8,2.2,1.6l90.2-14.7c1.1-0.2,1.8-1.2,1.6-2.2
		c-0.2-1.1-1.2-1.8-2.2-1.6L267.7,256.6z"/>
	<path class="st0" d="M265,299.1l-13.4-8.4l8.2-20.9c1.6-4.1,5.5-6.9,9.9-7.1l0,0c6.2-0.3,11.5,4.4,11.8,10.7
		c0.1,2.7-0.7,5.4-2.4,7.5L265,299.1z"/>
	<path class="st3" d="M251.6,285.7l19.3,9.2l-30.7,50.4c-2.7,4.5-7.9,6.9-13.2,6.2l0,0c-5-0.7-9.1-4.3-10.6-9.1l-34.3-65.5
		c-4.5-8.6-1.2-19.2,7.4-23.6c0.8-0.4,1.5-0.7,2.3-1h0c9.1-3.2,19.1,1.6,22.3,10.8c0,0.1,0.1,0.2,0.1,0.4l16.3,50L251.6,285.7z"/>
</g>
<path class="st2" d="M962.7,441c-13.3,18.7-16.8,125.3-17.5,159.5c0,0.8,0,1.5,0,2.2h-33.5c-0.4-0.7-0.8-1.5-1.2-2.2
	c-19.9-39.2-8.8-86.3-8.3-88.7c-1.5,7.5,5.3,29.2,13,50.2C919.9,497.5,960.2,444.3,962.7,441z"/>
<polygon class="st3" points="1032.9,600.3 1032.5,602.4 0,602.4 0,600.3 "/>
<g>
	<rect x="421.5" y="0.3" class="st2" width="611.5" height="391.6"/>
	<rect x="439" y="49.5" class="st6" width="576.5" height="319.3"/>
	<rect x="421.3" class="st5" width="611.5" height="26"/>
	<circle class="st6" cx="440.6" cy="13.3" r="4.8"/>
	<circle class="st6" cx="458.9" cy="13.3" r="4.8"/>
	<circle class="st6" cx="477.1" cy="13.3" r="4.8"/>
	<path class="st7" d="M852.4,79.4H664.7c-0.9-0.1-1.6-1-1.4-1.9c0.1-0.7,0.7-1.3,1.4-1.4h187.7c0.9,0.1,1.6,1,1.4,1.9
		C853.7,78.7,853.1,79.3,852.4,79.4z"/>
	<path class="st7" d="M722.3,97.5H603c-0.9-0.1-1.6-1-1.4-1.9c0.1-0.7,0.7-1.3,1.4-1.4h119.3c0.9,0.1,1.6,1,1.4,1.9
		C723.7,96.9,723.1,97.4,722.3,97.5z"/>
	<path class="st7" d="M852.4,97.9H733.1c-0.9-0.1-1.6-1-1.4-1.9c0.1-0.7,0.7-1.3,1.4-1.4h119.3c0.9,0.1,1.6,1,1.4,1.9
		C853.7,97.2,853.1,97.8,852.4,97.9z"/>
	<path class="st7" d="M722.6,115.7H603.3c-0.9-0.1-1.6-1-1.4-1.9c0.1-0.7,0.7-1.3,1.4-1.4h119.3c0.9,0.1,1.6,1,1.4,1.9
		C724,115,723.4,115.6,722.6,115.7z"/>
	<path class="st7" d="M722.9,133.9H603.6c-0.9-0.1-1.6-1-1.4-1.9c0.1-0.7,0.7-1.3,1.4-1.4h119.3c0.9,0.1,1.6,1,1.4,1.9
		C724.3,133.2,723.7,133.8,722.9,133.9z"/>
	<path class="st7" d="M777.1,115.7h-34.2c-0.9-0.1-1.6-1-1.4-1.9c0.1-0.7,0.7-1.3,1.4-1.4h34.2c0.9,0.1,1.6,1,1.4,1.9
		C778.4,115,777.8,115.6,777.1,115.7L777.1,115.7z"/>
	<path class="st7" d="M777.1,133.5h-34.2c-0.9-0.1-1.6-1-1.4-1.9c0.1-0.7,0.7-1.3,1.4-1.4h34.2c0.9,0.1,1.6,1,1.4,1.9
		C778.4,132.9,777.8,133.4,777.1,133.5L777.1,133.5z"/>
	<path class="st7" d="M834.4,133.5h-34.2c-0.9-0.1-1.6-1-1.4-1.9c0.1-0.7,0.7-1.3,1.4-1.4h34.2c0.9,0.1,1.6,1,1.4,1.9
		C835.8,132.9,835.2,133.4,834.4,133.5z"/>
	<path class="st7" d="M636.3,79.4h-34.2c-0.9-0.1-1.6-1-1.4-1.9c0.1-0.7,0.7-1.3,1.4-1.4h34.2c0.9,0.1,1.6,1,1.4,1.9
		C637.7,78.7,637.1,79.3,636.3,79.4z"/>
	<path class="st7" d="M721.9,287.7H602.6c-0.9-0.1-1.6-1-1.4-1.9c0.1-0.7,0.7-1.3,1.4-1.4h119.3c0.9,0.1,1.6,1,1.4,1.9
		C723.2,287,722.7,287.6,721.9,287.7L721.9,287.7z"/>
	<path class="st7" d="M721.3,324H602c-0.9-0.1-1.6-1-1.4-1.9c0.1-0.7,0.7-1.3,1.4-1.4h119.3c0.9,0.1,1.6,1,1.4,1.9
		C722.7,323.3,722.1,323.9,721.3,324z"/>
	<path class="st7" d="M721.6,342.2H602.3c-0.9-0.1-1.6-1-1.4-1.9c0.1-0.7,0.7-1.3,1.4-1.4h119.3c0.9,0.1,1.6,1,1.4,1.9
		C723,341.5,722.4,342.1,721.6,342.2L721.6,342.2z"/>
	<path class="st7" d="M772.6,324.3h-34.2c-0.9-0.1-1.6-1-1.4-1.9c0.1-0.7,0.7-1.3,1.4-1.4h34.2c0.9,0.1,1.6,1,1.4,1.9
		C773.9,323.7,773.3,324.2,772.6,324.3L772.6,324.3z"/>
	<path class="st7" d="M772.6,342.2h-34.2c-0.9-0.1-1.6-1-1.4-1.9c0.1-0.7,0.7-1.3,1.4-1.4h34.2c0.9,0.1,1.6,1,1.4,1.9
		C773.9,341.5,773.3,342.1,772.6,342.2L772.6,342.2z"/>
	<path class="st7" d="M829.9,324.3h-34.2c-0.9-0.1-1.6-1-1.4-1.9c0.1-0.7,0.7-1.3,1.4-1.4h34.2c0.9,0.1,1.6,1,1.4,1.9
		C831.3,323.7,830.7,324.2,829.9,324.3z"/>
	<path class="st7" d="M852.5,305.8H664.8c-0.9-0.1-1.6-1-1.4-1.9c0.1-0.7,0.7-1.3,1.4-1.4h187.7c0.9,0.1,1.6,1,1.4,1.9
		C853.9,305.2,853.3,305.7,852.5,305.8z"/>
	<path class="st7" d="M636.5,305.8h-34.2c-0.9-0.1-1.6-1-1.4-1.9c0.1-0.7,0.7-1.3,1.4-1.4h34.2c0.9,0.1,1.6,1,1.4,1.9
		C637.8,305.2,637.2,305.7,636.5,305.8z"/>
	<g>
		<g>
			
				<linearGradient id="SVGID_1_" gradientUnits="userSpaceOnUse" x1="703.1517" y1="166.1895" x2="703.1517" y2="368.0929" gradientTransform="matrix(1 0 0 -1 -95.23 529.0898)">
				<stop  offset="0" style="stop-color:#808080;stop-opacity:0.25"/>
				<stop  offset="0.54" style="stop-color:#808080;stop-opacity:0.12"/>
				<stop  offset="1" style="stop-color:#808080;stop-opacity:0.1"/>
			</linearGradient>
			<path class="st8" d="M649.4,331.2c1-1.8,2.2-3.5,3.2-5.4c0.9-1.7,1.6-3.5,2.4-5.2c1.4-3,3.1-5.8,4.6-8.6c1-1.9,2-3.9,1.8-6.1
				c-0.2-2-1.4-3.8-1.8-5.7c-1.9-8-6.3-15.4-9.1-23.1c-0.7-2-1.4-3.9-2.3-5.8c-1.7-3.6-4-6.9-6.4-10.2c-0.8-1.2-1.8-2.4-2.8-3.5
				c-0.8-0.8-1.8-1.6-2.6-2.5c-1.6-1.9-2.3-4.6-4.3-6.1c0,0.1-0.1,0.2-0.1,0.3c-1.4-3.6-6.2-6-8.9-9c-1.6-1.8-3.1-3.8-4.4-5.8
				l-6-8.7c-1-1.5-2.1-3-2.5-4.8c-0.5-2.1,0-4.4-0.5-6.6c-0.3-1.3-1-2.5-1.8-3.5c0.1,0,0.1,0,0.2-0.1c1.1-0.3,2.4-0.4,3.5-0.6
				c2.5-0.6,4.6-2.2,7.1-2.8c1.3-0.3,2.6-0.4,3.7-1c1.1-0.7,1.7-2,1.4-3.3c-0.8-4.2,1.4-8.5,1.1-12.8c-0.1-1.2-0.4-2.3-0.6-3.5
				c-0.5-2.7-0.4-5.5-0.2-8.3c0.8-1.2,1.7-2.4,2.7-3.4c1.5-1.5,3.3-2.7,4.4-4.5c0.9-1.6,1.1-3.6,0.9-5.4c-0.2-1.3-0.6-2.8-1.7-3.6
				s-2.6-0.9-3.9-0.5c-0.2,0.1-0.4,0.1-0.5,0.2c-1.1-0.5-2.3-0.6-3.5-0.2c-1.3,0.4-2.4,1.3-3.4,2.1c-0.6,0.5-1.1,1-1.6,1.7
				c-0.6,1-0.8,2.3-1.1,3.4c-0.5,2.3-1.3,4.5-2.3,6.7c-0.2,0.4-0.7,1.1-1.1,1.7l-0.7-0.1c-0.3,3-2.8,5.2-4.3,7.8
				c-0.7,1.3-1.3,2.6-1.9,3.9c-0.8,1.4-1.6,2.8-2.6,4.1c-0.9,1.3-1.8,2.7-2.7,4c-1.1,1.7-2.4,3.4-3.7,5c-1.2-0.1-2.5-0.2-3.7-0.2
				c-2.1,0-4.1,0.2-6.2,0.5c-0.1-0.7-0.2-1.4-0.2-2.2c0,0,0-0.1,0-0.1c0-0.2,0-0.4,0-0.6c5.7-3.8,7.2-11.5,3.4-17.3
				c-1-1.5-2.4-2.8-4-3.8c0.1-0.4,0.1-0.8,0.1-1.1c0-0.2,0-0.5,0-0.7c0-0.1,0-0.2,0-0.3c0-0.2-0.1-0.5-0.1-0.7
				c0-0.1-0.1-0.2-0.1-0.3c-0.1-0.2-0.2-0.4-0.3-0.6c0,0,0,0,0,0c0-0.1-0.1-0.1-0.1-0.2c-0.1-0.1,0-0.1-0.1-0.1c0,0-0.1-0.1-0.1-0.1
				l-0.1-0.1c0,0-0.1-0.1-0.1-0.1l-0.1-0.1l-0.1-0.1l-0.1-0.1l-0.1-0.1l-0.1-0.1l-0.1-0.1c0,0-0.1-0.1-0.1-0.1l-0.1-0.1l-0.1-0.1
				l-0.1-0.1l-0.1-0.1l-0.1-0.1l-0.2-0.1l-0.1,0l-0.2-0.1l-0.1,0l-0.2-0.1l-0.1,0l-0.2-0.1l-0.1,0l-0.2-0.1l-0.1,0l-0.2-0.1h0
				L582,172c-1.5-0.3-3-0.6-4.4-0.8c-1.2-0.2-2.5-0.3-3.7-0.1c-1.7,0.4-3,1.5-4.6,2.2c-1.8,0.8-3.9,1-5.8,1.5c-2,0.5-4,1.2-5.2,2.8
				c-0.9,1.2-1.3,2.8-1.6,4.3c-2.3,12.7,0.2,25.6,0.7,38.5c0.2,5,0,10.4-2.9,14.5l8.3-0.2c0.4,0,0.8,0,1.2,0c0.4,0,0.8-0.1,1.2-0.1
				c1-0.1,2.1-0.4,3-0.9c0.4-0.2,0.8-0.6,1.2-0.9c1.1-1.2,1.7-2.8,2.3-4.3c0.2-0.5,0.4-1,0.5-1.6c0.1-0.2,0.1-0.4,0.2-0.7l0-0.1
				l0.1,0c0.3,0.6,0.7,1.3,1.1,1.8c1.4,2.1,3.3,3.9,5.1,5.7c3.6,3.6,7.3,7.2,11.8,9.5c1.5,0.8,3.2,1.4,4.3,2.7
				c0.6,0.6,1.1,1.4,1.9,1.6c0.5,0.1,1.1,0,1.5,0.2c0.7,0.3,1,1.1,1.3,1.8c0.3,0.7,1.1,1.4,1.8,1.1c-0.3,1.3,0.2,2.7,1.3,3.5
				c0.3,0.2,0.6,0.5,0.9,0.8c0.1,0.3,0.2,0.6,0.2,0.9c0.1,0.9,0.6,1.6,1.3,2.2c-0.7,1.1-0.1,2.6-0.1,4c0,1.1-0.4,2.2-0.6,3.3
				c-0.7,3.2-0.3,6.6,0.3,9.9c0.3,1.8,0.8,3.7,1.9,5.1c0.4,0.5,0.8,0.8,1.2,1.3c0.8,0.9,1.4,1.8,1.9,2.9c1,2.1,1.7,4.3,2.1,6.6
				c0.2,1.2,0.5,2.3,1,3.3c0.7,1.6,0.1,3.6,0.7,5.2c0.3,0.7,0.9,1.4,1,2.1c0.3,1.1-0.3,2.2-0.5,3.4c-0.4,2.7,1.5,5.1,1.7,7.8
				c0,0.2,0,0.3-0.1,0.5c-0.1,0.1-0.4,0.1-0.5,0.2c-0.3,0.2-0.4,0.6-0.5,1c-0.1,0.4-0.4,0.8-0.8,0.7c-5.5,3-11.2,5.7-16.8,8.6
				l-2.5,1.3l-13.5,7.2c-0.3,0.2-0.5,0.5-0.5,0.9c0,0.2,0,0.3,0,0.5c-0.9,0.2-1.9,0.5-2.5,0.6c-0.3,0.1-0.5,0.1-0.8,0.2
				c0.1-0.1,0.1-0.2,0.1-0.3c0-0.3-0.3-0.6-0.6-0.7c-0.3,0-0.7,0-1,0.1c-0.8,0.2-1.6,0.4-2.4,0.4c-0.9,0.1-1.9,0.1-2.8,0.3
				c-0.9,0.2-1.8,0.8-2.2,1.7c-0.2,0.5-0.3,1-0.2,1.6c0,2.1,0.2,4.2,0.7,6.2c0,0.2,0.1,0.3,0.2,0.4c0.1,0,0.3,0,0.4,0.1
				c0.1,0.1,0.2,0.2,0.2,0.3c0.6,1.3,0.7,2.7,0.8,4.1c0.2,2.1,0.5,4.1,0.9,6.2c0.2,1.2,0.5,2.5,1.2,3.4c0.9,1,2.2,1.5,3.5,1.6
				c2.8,0.4,5.6-0.2,8.3-0.8c0.5-0.1,1.1-0.2,1.4-0.6c0.3-0.3,0.4-0.7,0.3-1.1c-0.1-1.4-1.3-2.4-2.5-3.1l-1.6-1.1
				c-0.3-0.1-0.4-0.5-0.3-0.8l0.1-2h-0.3c0.3-1.4,0.9-2.8,1.9-3.8c0.7-0.7,1.7-1.1,2.4-1.8c1,0.8,2.2,1.2,3.4,1.2
				c2-2.7,4.9-4.6,7.7-6.4c2.3-1.5,4.7-2.8,7.1-4c2-1,4-1.9,6.1-2.8c2.9-1.2,5.8-2.3,8.8-3.4c2-0.7,4-1.4,5.8-2.4
				c4.7-2.7,8-8.1,7.4-13.6c-0.8-6.9,0.9-14,0.8-20.9c0-2-0.1-4-0.7-6c0.1,0.1,0.3,0.2,0.4,0.3c1.2,1.1,1.5,3,2.7,4.3
				c0.9,1,2.3,1.7,2.8,2.9c0.4,1,0.4,2.3,1.2,2.8c0.2,0.2,0.5,0.2,0.8,0.4c0.3,0.2,0.5,0.5,0.7,0.8c0.9,1.3,1.9,2.7,2,4.4
				c0,0.6,0,1.4,0.5,1.8c0.1,0.1,0.3,0.2,0.4,0.4c0.1,0.3-0.2,0.7-0.3,1.1c-0.1,0.5,0.4,0.9,0.7,1.3c0.5,0.7,0.5,1.7,0,2.5
				c-2.8,3.6-3.3,8.4-5.7,12.2c-0.8,1.3-1.8,2.6-2.6,3.9c-2.5,4.1-3.7,8.8-5,13.5c0.5,0.9,1.2,1.7,2.1,2.3c-0.5,1.6-1.2,3-2.3,4.3
				c-0.3,0.3-0.5,0.6-0.8,1c-0.2-0.2-0.5-0.4-0.7-0.6c-0.4,1.9-0.7,3.9-0.7,5.9c0,1.3,0.2,2.8,1.2,3.5c0.4,0.3,0.9,0.5,1.4,0.6
				l2.3,0.7c0.4,0.2,0.8,0.2,1.3,0.1c0.3-0.1,0.5-0.2,0.8-0.3c0.3,0,0.6,0,0.9,0.1l2,0.6c0.7,0.2,1.3,0.4,2,0.7
				c0.6,0.3,1.1,0.6,1.7,0.9c0.9,0.5,1.9,0.9,2.9,1.2l3.4,1.2c1,0.4,2,0.6,3,0.8c0.7,0.1,1.4,0,2.1,0.1c0.5,0.1,1,0.3,1.6,0.3
				c0.9,0,1.8-0.2,2.5-0.7c0.3-0.2,0.5-0.4,0.7-0.6c0.5-0.8,0.1-1.8-0.4-2.6c-0.9-1.5-2.1-2.9-3.6-3.7c-0.6-0.3-1.3-0.6-1.9-0.9
				c-1.8-0.9-3.1-2.3-4.8-3.3c-0.4-0.3-1.1-0.3-1.4,0.1c-1.4-0.9-2.9-1.8-3.7-3.3c-0.3-0.7-0.6-1.5-0.7-2.3c0.8,0.2,1.6,0.3,2.4,0.5
				C645.4,340.9,646.8,335.7,649.4,331.2z M617.1,187.8c-0.1,0.4-0.1,0.8-0.2,1.1c-0.7,3.2-1.6,6.7-3.8,9c-0.7,0.7-1.6,1.2-2.5,1.6
				l-0.2,0.1C611.9,195.5,614.4,191.6,617.1,187.8z"/>
			<path class="st9" d="M620.3,169.1c0.2-1.2,0.4-2.4,1.1-3.4c0.4-0.6,1-1.2,1.6-1.7c1-0.9,2.1-1.7,3.4-2.1c1.3-0.4,2.8-0.4,3.9,0.4
				s1.5,2.2,1.7,3.6c0.2,1.8,0,3.8-0.9,5.4c-1,1.8-2.9,3-4.4,4.5c-1.1,1.1-2.1,2.2-2.8,3.6c-0.4,0.7-0.8,1.3-1.3,1.9
				c-0.5,0.6-1.3,0.9-2.1,0.8c-0.6-0.1-1.2-0.6-1.7-1c-0.6-0.5-2.3-1.5-2.4-2.4c0-0.7,1.3-2.3,1.6-2.9
				C619,173.6,619.8,171.4,620.3,169.1z"/>
			<path class="st10" d="M620.3,169.1c0.2-1.2,0.4-2.4,1.1-3.4c0.4-0.6,1-1.2,1.6-1.7c1-0.9,2.1-1.7,3.4-2.1
				c1.3-0.4,2.8-0.4,3.9,0.4s1.5,2.2,1.7,3.6c0.2,1.8,0,3.8-0.9,5.4c-1,1.8-2.9,3-4.4,4.5c-1.1,1.1-2.1,2.2-2.8,3.6
				c-0.4,0.7-0.8,1.3-1.3,1.9c-0.5,0.6-1.3,0.9-2.1,0.8c-0.6-0.1-1.2-0.6-1.7-1c-0.6-0.5-2.3-1.5-2.4-2.4c0-0.7,1.3-2.3,1.6-2.9
				C619,173.6,619.8,171.4,620.3,169.1z"/>
			<path class="st5" d="M585,202.7c2.7-0.7,5.5-1.1,8.3-1c4.6,0.1,9.4,1.2,13.9-0.2c1.1-0.4,2.3-0.9,3.3-1.4
				c0.9-0.4,1.8-0.9,2.5-1.6c2.2-2.3,3.1-5.8,3.8-9s0.9-6.4,1-9.6c1.1,0.5,2.4,1.1,3.6,1s2.5-1.1,2.5-2.4c-0.2,3-0.3,6,0.2,8.9
				c0.2,1.2,0.5,2.3,0.6,3.5c0.4,4.2-1.9,8.5-1.1,12.7c0.3,1.3-0.3,2.6-1.4,3.3c-1.1,0.6-2.5,0.7-3.7,1c-2.5,0.6-4.6,2.2-7.1,2.8
				c-1.2,0.3-2.4,0.3-3.5,0.6c-1.6,0.4-3.1,1.4-4.8,1.7c-1.2,0.2-2.5,0.1-3.8,0.2c-1.1,0.1-2.2,0.4-3.3,0.4c-2.7,0.1-5.2-1.5-7-3.5
				C587.3,207.9,586.1,205.1,585,202.7z"/>
			<path class="st10" d="M585,202.7c2.7-0.7,5.5-1.1,8.3-1c4.6,0.1,9.4,1.2,13.9-0.2c1.1-0.4,2.3-0.9,3.3-1.4
				c0.9-0.4,1.8-0.9,2.5-1.6c2.2-2.3,3.1-5.8,3.8-9s0.9-6.4,1-9.6c1.1,0.5,2.4,1.1,3.6,1s2.5-1.1,2.5-2.4c-0.2,3-0.3,6,0.2,8.9
				c0.2,1.2,0.5,2.3,0.6,3.5c0.4,4.2-1.9,8.5-1.1,12.7c0.3,1.3-0.3,2.6-1.4,3.3c-1.1,0.6-2.5,0.7-3.7,1c-2.5,0.6-4.6,2.2-7.1,2.8
				c-1.2,0.3-2.4,0.3-3.5,0.6c-1.6,0.4-3.1,1.4-4.8,1.7c-1.2,0.2-2.5,0.1-3.8,0.2c-1.1,0.1-2.2,0.4-3.3,0.4c-2.7,0.1-5.2-1.5-7-3.5
				C587.3,207.9,586.1,205.1,585,202.7z"/>
			<path class="st3" d="M705.9,206.8c12.8,0,23.1,10.4,23.1,23.1c0,12.8-10.4,23.1-23.1,23.1c-12.8,0-23.1-10.4-23.1-23.1
				c0,0,0,0,0,0C682.8,217.2,693.1,206.8,705.9,206.8 M705.9,201.1c-15.9,0-28.9,12.9-28.9,28.9s12.9,28.9,28.9,28.9
				c15.9,0,28.9-12.9,28.9-28.9c0,0,0,0,0,0C734.8,214,721.8,201.1,705.9,201.1z"/>
			<rect x="701.6" y="194.3" class="st3" width="6.8" height="7.1"/>
			
				<rect x="718" y="198.6" transform="matrix(0.515 -0.8572 0.8572 0.515 176.7486 716.4535)" class="st3" width="7.1" height="6.8"/>
			
				<rect x="729.8" y="210.2" transform="matrix(0.8746 -0.4848 0.4848 0.8746 -11.5888 382.3409)" class="st3" width="7.1" height="6.8"/>
			
				<rect x="730.2" y="242.5" transform="matrix(0.5299 -0.848 0.848 0.5299 136.1674 737.765)" class="st3" width="6.8" height="7.1"/>
			<rect x="675" y="210" transform="matrix(0.4848 -0.8746 0.8746 0.4848 162.725 703.399)" class="st3" width="6.8" height="7.1"/>
			
				<rect x="674.7" y="242.7" transform="matrix(0.848 -0.5299 0.5299 0.848 -27.3238 396.8178)" class="st3" width="7.1" height="6.8"/>
			
				<rect x="686.9" y="198.5" transform="matrix(0.8572 -0.515 0.515 0.8572 -5.454 384.3841)" class="st3" width="6.8" height="7.1"/>
			<rect x="701.6" y="258.4" class="st3" width="6.8" height="7.1"/>
			
				<rect x="718.2" y="254.3" transform="matrix(0.8572 -0.515 0.515 0.8572 -29.7549 408.4526)" class="st3" width="6.8" height="7.1"/>
			
				<rect x="686.7" y="254.5" transform="matrix(0.515 -0.8572 0.8572 0.515 113.727 716.7579)" class="st3" width="7.1" height="6.8"/>
			<rect x="669.6" y="227.1" class="st3" width="8.2" height="6.1"/>
			<rect x="734" y="227.1" class="st3" width="8.2" height="6.1"/>
			<path class="st3" d="M759.7,165.2c12.8,0,23.1,10.4,23.1,23.1c0,12.8-10.4,23.1-23.1,23.1c-12.8,0-23.1-10.4-23.1-23.1
				c0,0,0,0,0,0C736.5,175.5,746.9,165.2,759.7,165.2 M759.7,159.4c-15.9,0-28.9,12.9-28.9,28.9s12.9,28.9,28.9,28.9
				s28.9-12.9,28.9-28.9c0,0,0,0,0,0C788.5,172.4,775.6,159.5,759.7,159.4z"/>
			<rect x="755.4" y="152.7" class="st3" width="6.8" height="7.1"/>
			
				<rect x="771.7" y="157" transform="matrix(0.515 -0.8572 0.8572 0.515 238.5292 742.3352)" class="st3" width="7.1" height="6.8"/>
			
				<rect x="783.6" y="168.5" transform="matrix(0.8746 -0.4848 0.4848 0.8746 15.3475 403.1826)" class="st3" width="7.1" height="6.8"/>
			
				<rect x="783.9" y="200.8" transform="matrix(0.5299 -0.848 0.848 0.5299 196.764 763.775)" class="st3" width="6.8" height="7.1"/>
			
				<rect x="728.8" y="168.4" transform="matrix(0.4848 -0.8746 0.8746 0.4848 226.8501 728.9591)" class="st3" width="6.8" height="7.1"/>
			<rect x="728.5" y="201" transform="matrix(0.848 -0.5299 0.5299 0.848 2.9177 418.977)" class="st3" width="7.1" height="6.8"/>
			
				<rect x="740.7" y="156.8" transform="matrix(0.8572 -0.515 0.515 0.8572 23.6796 406.1232)" class="st3" width="6.8" height="7.1"/>
			<rect x="755.4" y="216.8" class="st3" width="6.8" height="7.1"/>
			
				<rect x="771.9" y="212.7" transform="matrix(0.8572 -0.515 0.515 0.8572 -0.6226 430.192)" class="st3" width="6.8" height="7.1"/>
			
				<rect x="740.5" y="212.8" transform="matrix(0.515 -0.8572 0.8572 0.515 175.5044 742.6364)" class="st3" width="7.1" height="6.8"/>
			<rect x="723.4" y="185.4" class="st3" width="8.2" height="6.1"/>
			<rect x="787.8" y="185.4" class="st3" width="8.2" height="6.1"/>
			<path class="st3" d="M652.1,163.4c0.3,0,0.5,0,0.8,0c12.8,0.4,22.8,11.1,22.3,23.9c-0.4,12.5-10.7,22.4-23.1,22.4
				c-0.3,0-0.5,0-0.8,0c-12.8-0.4-22.8-11.1-22.3-23.9C629.4,173.3,639.7,163.4,652.1,163.4 M652.1,157.7L652.1,157.7
				c-15.9,0-28.9,12.9-28.9,28.9c0,15.6,12.3,28.3,27.9,28.8c0.3,0,0.7,0,1,0c15.9,0,28.9-12.9,28.9-28.9
				c0-15.6-12.3-28.3-27.9-28.8C652.8,157.7,652.5,157.7,652.1,157.7L652.1,157.7z"/>
			
				<rect x="648.8" y="151.1" transform="matrix(3.472507e-02 -0.9994 0.9994 3.472507e-02 475.3499 801.0822)" class="st3" width="7.1" height="6.8"/>
			
				<rect x="665.2" y="155.8" transform="matrix(0.5445 -0.8388 0.8388 0.5445 171.1208 633.4032)" class="st3" width="7.1" height="6.8"/>
			
				<rect x="676.6" y="167.7" transform="matrix(0.8909 -0.4541 0.4541 0.8909 -3.5167 327.5703)" class="st3" width="7.1" height="6.8"/>
			
				<rect x="675.8" y="200" transform="matrix(0.559 -0.8291 0.8291 0.559 130.7254 652.9342)" class="st3" width="6.8" height="7.1"/>
			
				<rect x="621.9" y="165.6" transform="matrix(0.5149 -0.8573 0.8573 0.5149 158.2739 618.0763)" class="st3" width="6.8" height="7.1"/>
			
				<rect x="619.9" y="198.8" transform="matrix(0.867 -0.4983 0.4983 0.867 -17.8349 337.5576)" class="st3" width="7.1" height="6.8"/>
			
				<rect x="634.1" y="154.5" transform="matrix(0.8745 -0.485 0.485 0.8745 3.3336 329.002)" class="st3" width="6.8" height="7.1"/>
			
				<rect x="646.6" y="215.1" transform="matrix(3.472507e-02 -0.9994 0.9994 3.472507e-02 409.2001 860.68)" class="st3" width="7.1" height="6.8"/>
			
				<rect x="663.4" y="211.4" transform="matrix(0.8745 -0.485 0.485 0.8745 -20.5916 350.3445)" class="st3" width="6.8" height="7.1"/>
			
				<rect x="632" y="210.5" transform="matrix(0.5445 -0.8388 0.8388 0.5445 110.1196 630.5264)" class="st3" width="7.1" height="6.8"/>
			
				<rect x="616.9" y="181.5" transform="matrix(3.472507e-02 -0.9994 0.9994 3.472507e-02 412.9577 798.7066)" class="st3" width="6.1" height="8.2"/>
			
				<rect x="681.3" y="183.7" transform="matrix(3.472517e-02 -0.9994 0.9994 3.472517e-02 472.9007 865.2253)" class="st3" width="6.1" height="8.2"/>
			<path class="st9" d="M577.6,334.1c-0.8,0.1-1.6,0.4-2.4,0.7c-1,0.6-1.6,1.7-2.1,2.8c-1.1,2.7-1.3,5.8-1.4,8.7
				c0,2.4,0,4.8,0.9,7.1c0.2,0.7,0.6,1.3,1.2,1.9c0.5,0.4,1,0.6,1.6,0.8c1.3,0.3,2.8,0.3,3.8-0.5c1.2-0.9,1.5-2.5,1.7-4
				c0.3-2,0.8-4,2.3-5.4c1.1-1,2.6-1.5,3.4-2.8c0.9-1.5,0.4-3.4-0.2-5.1c-0.5-1.4-1.3-4.3-2.8-5.1
				C582.2,332.6,579.2,333.8,577.6,334.1z"/>
			<path class="st9" d="M632.9,341.1c-0.5,1.6-1.3,3.1-2.4,4.3c-0.7,0.8-1.5,1.7-1.1,2.6c0.1,0.3,0.4,0.6,0.6,0.8
				c4.9,4.8,11.8,7.2,18.7,8c0.1,0,0.2,0,0.3,0c0.2-0.1,0.2-0.3,0.3-0.6c0.1-0.7,0.1-1.4,0-2.2c-0.3-1.7-1.8-2.8-3.2-3.8
				c-1.4-0.9-3-1.8-3.8-3.3c-1-1.9-0.6-4.3-1.8-6.1c-1-1.4-2.7-2-4.4-2.3c-0.6-0.1-1.8-0.7-2.4-0.4
				C633.2,338.7,633.1,340.5,632.9,341.1z"/>
			<path class="st3" d="M577,333.9c0-0.3-0.3-0.6-0.6-0.7c-0.3,0-0.7,0-1,0.1c-0.8,0.2-1.6,0.4-2.4,0.4c-0.9,0.1-1.9,0.1-2.8,0.3
				c-0.9,0.2-1.8,0.8-2.2,1.7c-0.2,0.5-0.3,1-0.2,1.6c0,2.1,0.2,4.1,0.7,6.1c0,0.2,0.1,0.3,0.2,0.4c0.1,0,0.3,0,0.4,0.1
				c0.1,0.1,0.2,0.2,0.2,0.3c0.6,1.3,0.7,2.7,0.9,4.1c0.2,2.1,0.5,4.1,0.9,6.2c0.2,1.2,0.5,2.4,1.2,3.4c0.9,1,2.2,1.4,3.5,1.6
				c2.8,0.4,5.6-0.2,8.3-0.8c0.5-0.1,1-0.3,1.4-0.6c0.3-0.3,0.4-0.7,0.3-1.1c-0.1-1.4-1.3-2.4-2.5-3.1l-1.6-1.1
				c-0.1-0.1-0.2-0.1-0.3-0.2c-0.1-0.2-0.1-0.3-0.1-0.5l0.1-2c-2.1,0-4.1,1.2-5,3.1c-0.2,0.4-0.4,0.9-0.9,1.1
				c-0.6,0.2-1.2-0.3-1.4-0.8c-0.1-0.6-0.1-1.2,0.1-1.8c0.9-4.9,0.7-10,1.3-15c0-0.6,0.2-1.1,0.5-1.6
				C576.4,334.7,576.9,334.4,577,333.9z"/>
			<path class="st3" d="M645.6,353c0.2,0.4,0.6,0.7,0.8,1.1c0.2,0.4,0.2,1-0.2,1.2c-0.2,0.1-0.5,0.1-0.7,0.1
				c-4.9-0.6-9.6-2.7-13.3-6c-0.6-0.5-1.2-1.1-1.6-1.8c-0.4-0.7-0.8-1.5-1.5-1.7c-0.4,1.9-0.7,3.9-0.7,5.8c0,1.3,0.2,2.8,1.2,3.5
				c0.4,0.3,0.9,0.5,1.4,0.6l2.3,0.7c0.4,0.2,0.8,0.2,1.3,0.1c0.3-0.1,0.5-0.2,0.8-0.3c0.3,0,0.6,0,0.9,0.1l2,0.6
				c0.7,0.2,1.3,0.4,2,0.7c0.6,0.3,1.1,0.6,1.7,0.9c0.9,0.5,1.9,0.9,2.9,1.2l3.5,1.2c1,0.4,2,0.6,3,0.8c0.7,0.1,1.4,0,2.1,0.1
				c0.5,0.1,1,0.3,1.6,0.3c0.9,0,1.8-0.2,2.5-0.7c0.3-0.2,0.5-0.4,0.7-0.6c0.5-0.8,0.1-1.8-0.4-2.6c-0.9-1.5-2.1-2.8-3.6-3.7
				c-0.6-0.3-1.3-0.6-1.9-0.9c-1.8-0.9-3.1-2.3-4.8-3.3C645.9,349.4,644.9,351.8,645.6,353z"/>
			<path class="st9" d="M596.3,211.7c-1.9,1.3-4,2.1-6.2,2.4c-1.2,0.1-2.3,0.2-3.5,0.2c-4.9,0-9.8-0.4-14.6-1.2
				c1.9-2.1,3.9-4.4,4.6-7.1c0.4-1.5,0.4-3,0.2-4.5c-0.3-1.9-0.7-3.8-1.4-5.6c2.1,0.1,4.1,0.1,6.2-0.2c1.2-0.1,4-1.2,5-0.4
				c0.9,0.7,0.2,3.4,0.2,4.6c0,0,0,0.1,0,0.1c0.1,1.9,0.5,3.7,1.2,5.4C589.5,208.8,592.7,211.5,596.3,211.7z"/>
			<path class="st10" d="M586.9,199.9c-3,1.9-6.7,2.5-10.1,1.5c-0.3-1.9-0.7-3.8-1.4-5.6c2.1,0.1,4.1,0.1,6.2-0.2
				c1.2-0.1,4-1.2,5-0.4C587.6,196.1,586.9,198.7,586.9,199.9z"/>
			<circle class="st9" cx="580.1" cy="189.1" r="12.3"/>
			<path class="st5" d="M632.3,251.3c0,2-1,3.9-2.8,4.9c-1,0.5-2,0.9-3,1.1c-5.6,1.3-11.4,2.5-17.2,2.1c-1.3-0.1-2.5-0.2-3.6-0.8
				c-1.1-0.5-2.1-1.6-2.2-2.8c0-0.3-0.1-0.6-0.2-0.9c-0.2-0.3-0.5-0.6-0.9-0.8c-1.1-0.8-1.6-2.2-1.3-3.5c-0.7,0.3-1.4-0.4-1.8-1.1
				s-0.6-1.5-1.3-1.8c-0.5-0.2-1-0.1-1.5-0.2c-0.8-0.2-1.3-1-1.9-1.6c-1.2-1.2-2.8-1.9-4.3-2.7c-4.5-2.3-8.2-5.9-11.8-9.5
				c-1.8-1.8-3.7-3.6-5.1-5.7c-0.4-0.6-0.8-1.2-1.1-1.8c-1.1-2.1-2-4.3-2.8-6.5c-0.5-1.2-0.9-2.4-0.7-3.7c0-0.1,0-0.2,0.1-0.3
				c0.2-0.8,0.6-1.6,1.1-2.3c1.3-1.8,2.9-3.6,5-4.1c2.2-0.6,4.3,0.1,6.5,0.6c0.7,0.2,1.5,0.3,2.2,0.3c2.3,0.2,4.6-0.5,6.8-1.1
				l2.4-0.7c1.2-0.3,1.8-1.8,3.1-2.1c0.6-0.1,1.1-0.1,1.7,0.1c2.5,0.5,5,1.1,7.3,2.4c0.5,0.3,1,0.6,1.4,1c1.6,1.2,2.8,2.9,3.3,4.8
				c0.5,2.1,0,4.4,0.5,6.5c0.4,1.8,1.5,3.3,2.5,4.8l6,8.6c1.3,2,2.8,3.9,4.4,5.8C626.3,243.9,632.3,246.5,632.3,251.3z"/>
			<path class="st9" d="M616.3,169.1c0.2-1.2,0.4-2.4,1.1-3.4c0.4-0.6,1-1.2,1.6-1.7c1-0.9,2.1-1.7,3.4-2.1c1.3-0.4,2.8-0.4,3.9,0.4
				c1.1,0.8,1.5,2.2,1.7,3.6c0.2,1.8,0,3.8-0.9,5.4c-1,1.8-2.9,3-4.4,4.5c-1.1,1.1-2.1,2.2-2.8,3.6c-0.4,0.7-0.8,1.3-1.3,1.9
				c-0.5,0.6-1.3,0.9-2.1,0.8c-0.6-0.1-1.2-0.6-1.7-1c-0.6-0.5-2.3-1.5-2.4-2.4c0-0.7,1.3-2.3,1.6-2.9
				C615,173.6,615.8,171.4,616.3,169.1z"/>
			<path class="st3" d="M659.5,311.6c-1.5,2.9-3.2,5.6-4.6,8.6c-0.8,1.7-1.5,3.5-2.4,5.2c-1,1.8-2.2,3.5-3.2,5.3
				c-2.6,4.5-4,9.7-5.3,14.7c-3.7-0.6-7.3-1.8-10.5-3.7c-0.2-0.1-0.4-0.3-0.6-0.4c-0.9-0.6-1.6-1.4-2.1-2.3c1.2-4.6,2.5-9.3,5-13.4
				c0.8-1.3,1.7-2.6,2.6-3.9c2.4-3.8,2.9-8.6,5.7-12.1c0.5-0.7,0.5-1.7,0-2.5c-0.3-0.4-0.8-0.8-0.7-1.3c0.1-0.4,0.5-0.7,0.3-1.1
				c-0.1-0.2-0.2-0.3-0.4-0.4c-0.5-0.4-0.4-1.2-0.5-1.8c-0.1-1.6-1.1-3-2-4.3c-0.2-0.3-0.4-0.6-0.7-0.8c-0.2-0.2-0.5-0.2-0.8-0.4
				c-0.9-0.6-0.8-1.8-1.2-2.8c-0.6-1.3-1.9-1.9-2.9-2.9c-1.2-1.3-1.5-3.1-2.7-4.2c-0.1-0.1-0.3-0.2-0.4-0.3c0.6,1.9,0.7,3.9,0.7,5.9
				c0.1,6.9-1.6,14-0.8,20.8c0.6,5.4-2.7,10.8-7.4,13.5c-1.8,1-3.8,1.7-5.8,2.4c-3,1-5.9,2.1-8.8,3.3c-2,0.8-4.1,1.8-6.1,2.7
				c-2.5,1.2-4.8,2.5-7.2,4c-2.8,1.8-5.7,3.6-7.7,6.3c-2-0.1-3.7-1.2-5-2.7s-2-3.4-2.7-5.2c-0.6-1.6-1.2-3.2-1.3-4.9
				c0-0.4,0.2-0.7,0.6-0.8l13.5-7.2l2.5-1.3c5.5-2.9,11.3-5.6,16.8-8.6c0.4,0.1,0.7-0.3,0.8-0.7c0.1-0.4,0.2-0.8,0.5-1
				c0.2-0.1,0.4-0.1,0.5-0.2c0.1-0.1,0.1-0.3,0.1-0.4c-0.2-2.7-2.1-5.1-1.7-7.8c0.2-1.1,0.7-2.2,0.5-3.4c-0.2-0.8-0.7-1.4-1-2.1
				c-0.7-1.6,0-3.6-0.7-5.2c-0.5-1-0.8-2.2-1-3.3c-0.3-2.3-1-4.5-2.1-6.6c-0.5-1-1.1-2-1.9-2.9c-0.4-0.4-0.9-0.8-1.3-1.3
				c-1.2-1.4-1.6-3.2-1.9-5c-0.6-3.3-1-6.6-0.3-9.8c0.3-1.1,0.6-2.2,0.6-3.3c0-1.5-0.7-3.2,0.4-4.3c0.4-0.4,1-0.7,1.5-0.8
				c2.4-0.7,4.9-1,7.3-1.3l11.3-1.5c1.3-0.2,2.6-0.3,3.8-1c1.5-0.8,2.5-2.4,3.2-4c2,1.4,2.7,4.1,4.3,6c0.8,0.9,1.7,1.6,2.6,2.5
				c1,1.1,2,2.3,2.8,3.5c2.4,3.2,4.7,6.5,6.4,10.1c0.9,1.9,1.6,3.8,2.3,5.8c2.8,7.7,7.2,15,9.1,22.9c0.5,1.9,1.6,3.7,1.8,5.7
				C661.5,307.7,660.6,309.7,659.5,311.6z"/>
			<path class="st10" d="M600.5,247.7c-0.3,0.5-0.4,1.1-0.4,1.7c0.3-1.2,2-1.9,2.1-3.2c0.1-0.6-0.1-0.5-0.4-0.2
				C601.2,246.5,601,247.3,600.5,247.7z"/>
			<path class="st10" d="M605.7,251.5c-0.4,0.3-0.6,0.7-0.8,1.2c-0.3,0.6-0.3,1.3-0.2,2c0.3-0.1,0.3-0.4,0.4-0.7
				c0.1-0.4,0.3-0.8,0.5-1.2c0.2-0.3,1.1-1.1,1.1-1.4C606.8,250.8,605.9,251.3,605.7,251.5z"/>
			<path class="st10" d="M606.3,209.9c-0.8,0.7-1.7,1.3-2.6,1.7c-2.4,1.2-5.1,1.9-7.6,3.1c-1.2,0.6-2.4,1.3-3.5,2.1l-7.3,4.6
				c-0.6,0.3-1.1,0.7-1.6,1.2c-0.9,0.9-0.9,2.6-1.7,3.6c-0.8,1-2.2,1.6-3.5,1.6c-1.3,0-2.7-0.2-3.9-0.7c-0.8-0.2-1.5-0.5-2.3-0.8
				c-0.8-0.3-1.5-0.7-2.2-1.2c-1.3-1-2.4-2.4-2.5-4c-0.1-1.1,0.1-2.2,0.4-3.3c0.2-0.7,0.5-1.4,0.8-2c0.2-0.4,0.4-0.7,0.6-1
				c1.7-2.4,4.6-3.5,7.5-4c1.5-0.3,3-0.5,4.5-0.7c0.7,0.2,1.5,0.3,2.2,0.3c2.3,0.2,4.6-0.5,6.8-1.1l2.4-0.7c1.2-0.3,1.8-1.8,3.1-2.1
				c0.6-0.1,1.1-0.1,1.7,0.1c2.5,0.5,5,1.1,7.3,2.4C605.4,209.2,605.9,209.5,606.3,209.9z"/>
			<path class="st5" d="M612.2,177.2c-0.3,3-2.8,5.2-4.4,7.7c-0.7,1.2-1.3,2.6-1.9,3.9c-0.8,1.4-1.6,2.8-2.6,4.1l-2.7,4
				c-1.6,2.3-3.2,4.7-5.3,6.6c-3.6,0.6-6.6,3.3-10,4.6c-2.7,1-5.7,1.2-8.5,1.7c-2.9,0.6-5.8,1.7-7.5,4c-0.6,0.9-1.1,1.9-1.4,3
				c-0.4,1.1-0.5,2.2-0.4,3.3c0.2,1.6,1.2,3,2.5,4c1.3,1,2.9,1.6,4.4,2.1c1.3,0.5,2.6,0.7,3.9,0.7c1.3-0.1,2.7-0.6,3.5-1.6
				c0.8-1,0.8-2.6,1.7-3.6c0.5-0.5,1-0.9,1.6-1.2l7.3-4.6c1.1-0.7,2.3-1.4,3.5-2c2.5-1.2,5.2-1.8,7.6-3.1s4.7-3.3,5.2-6
				c1.5-8.3,7.2-15.2,12.1-22.1c-0.2,0-0.1-0.4-0.2-0.6c-0.6-1.6-2-2.8-3.6-3.6C615.7,177.8,613.9,177.6,612.2,177.2z"/>
			<path class="st3" d="M586.5,177.3c0.1-0.9-0.1-1.8-0.5-2.6c-0.8-1.3-2.5-1.8-4-2.1c-1.5-0.3-3-0.6-4.5-0.8
				c-1.2-0.2-2.5-0.3-3.7-0.1c-1.7,0.4-3,1.5-4.6,2.2c-1.8,0.8-3.9,1-5.8,1.5c-2,0.5-4,1.2-5.2,2.8c-0.9,1.2-1.3,2.8-1.6,4.3
				c-2.3,12.6,0.2,25.5,0.7,38.2c0.2,5,0,10.3-2.9,14.4l8.3-0.2c2.1-0.1,4.4-0.2,6.1-1.5c1.5-1.1,2.2-3,2.8-4.8
				c0.5-1.4,1-2.8,1.1-4.3c0.1-3-1.6-6-1-8.9c0.4-2.2,2-4,3.7-5.4c1.7-1.4,3.6-2.7,5-4.5c2.5-3.1,3-7.4,2.6-11.4
				c-0.2-2.4-0.6-4.7-0.4-7.1c0.2-1.8,0.7-3.6,1.9-5C585.7,180.5,586.3,179.5,586.5,177.3z"/>
			<path class="st10" d="M586,174.7c-0.8-1.3-2.5-1.8-4-2.1c0.8,0.3,1.5,0.8,2,1.5c0.4,0.8,0.6,1.7,0.5,2.6
				c-0.1,2.2-0.8,3.2-2.1,4.8c-1.2,1.4-1.7,3.2-1.9,5c-0.2,2.4,0.2,4.7,0.4,7.1c0.3,4-0.2,8.3-2.6,11.4c-1.4,1.8-3.3,3-5,4.5
				c-1.7,1.4-3.3,3.2-3.7,5.4c-0.6,3,1.1,5.9,1,8.9c-0.1,1.5-0.6,2.9-1.1,4.3c-0.6,1.8-1.3,3.6-2.8,4.8c-1.7,1.3-3.9,1.4-6.1,1.5
				l-5.9,0.2c-0.1,0.2-0.3,0.4-0.4,0.6l8.3-0.2c2.1-0.1,4.4-0.2,6.1-1.5c1.5-1.1,2.2-3,2.8-4.8c0.5-1.4,1-2.8,1.1-4.3
				c0.1-3-1.6-6-1-8.9c0.4-2.2,2-4,3.7-5.4c1.7-1.4,3.6-2.7,5-4.5c2.5-3.1,3-7.4,2.6-11.4c-0.2-2.4-0.6-4.7-0.4-7.1
				c0.2-1.8,0.7-3.6,1.9-5c1.3-1.6,2-2.5,2.1-4.8C586.5,176.4,586.4,175.5,586,174.7z"/>
			<path class="st10" d="M648.1,304.2l-15.2,37c-0.9-0.6-1.6-1.4-2.1-2.3c1.2-4.6,2.5-9.3,5-13.4c0.8-1.3,1.7-2.6,2.6-3.9
				c2.4-3.8,2.9-8.6,5.7-12.1c0.5-0.7,0.5-1.7,0-2.5c-0.3-0.4-0.8-0.8-0.7-1.3c0.1-0.4,0.5-0.7,0.3-1.1c-0.1-0.2-0.2-0.3-0.4-0.4
				c-0.5-0.4-0.4-1.2-0.5-1.8c-0.1-1.6-1.1-3-2-4.3c-0.2-0.3-0.4-0.6-0.7-0.8c-0.2-0.2-0.5-0.2-0.8-0.4c-0.9-0.6-0.8-1.8-1.2-2.8
				c-0.6-1.3-1.9-1.9-2.9-2.9c-1.2-1.3-1.5-3.1-2.7-4.2l-0.1-0.3l1.2-7.1L648.1,304.2z"/>
		</g>
		<g>
			<path class="st5" d="M718.1,228.3h-9.4c-1.8,0-3.2-1.4-3.2-3.2v-9.4c0-0.1-0.1-0.3-0.3-0.3l0,0h-6.2c-2.4,0-4.3,1.9-4.3,4.3v21.4
				c0,2.4,1.9,4.3,4.3,4.3l0,0h15c2.4,0,4.3-1.9,4.3-4.3c0,0,0,0,0,0v-12.6C718.3,228.4,718.2,228.3,718.1,228.3L718.1,228.3z
				 M711.9,239h-10.7c-0.6,0-1.1-0.5-1.1-1.1c0-0.6,0.5-1.1,1.1-1.1h10.7c0.6,0,1.1,0.5,1.1,1.1C713,238.5,712.5,239,711.9,239z
				 M711.9,233.7h-10.7c-0.6,0-1.1-0.5-1.1-1.1c0-0.6,0.5-1.1,1.1-1.1h10.7c0.6,0,1.1,0.5,1.1,1.1
				C713,233.2,712.5,233.7,711.9,233.7z"/>
			<path class="st5" d="M717.5,225.9l-9.6-9.6c-0.1-0.1-0.1-0.1-0.2,0c0,0,0,0.1,0,0.1v8.7c0,0.6,0.5,1.1,1.1,1.1h8.7
				C717.5,226.2,717.5,226.1,717.5,225.9C717.5,226,717.5,226,717.5,225.9L717.5,225.9z"/>
		</g>
		<g>
			<path class="st5" d="M657.6,184.1c-0.7,0-1.3-0.6-1.3-1.3c0-0.3,0.1-0.7,0.4-0.9l3-3l-3-3c-0.5-0.5-0.5-1.4,0-1.9
				c0.5-0.5,1.3-0.5,1.9,0l4,4c0.5,0.5,0.5,1.3,0,1.9c0,0,0,0,0,0l-4,4C658.3,184,657.9,184.1,657.6,184.1z"/>
			<path class="st5" d="M636.5,188.1c-0.7,0-1.3-0.6-1.3-1.3c0,0,0,0,0,0v-1.3c0-4.4,3.5-7.9,7.9-7.9h17.1c0.7,0,1.3,0.6,1.3,1.3
				c0,0.7-0.6,1.3-1.3,1.3c0,0,0,0,0,0h-17.1c-2.9,0-5.3,2.4-5.3,5.3v1.3C637.8,187.5,637.2,188.1,636.5,188.1
				C636.5,188.1,636.5,188.1,636.5,188.1z"/>
			<path class="st5" d="M647,198.6c-0.3,0-0.7-0.1-0.9-0.4l-4-4c-0.5-0.5-0.5-1.3,0-1.9c0,0,0,0,0,0l4-4c0.5-0.5,1.4-0.5,1.9,0
				c0.5,0.5,0.5,1.3,0,1.9l-3,3l3,3c0.5,0.5,0.5,1.3,0,1.9C647.7,198.5,647.4,198.6,647,198.6L647,198.6z"/>
			<path class="st5" d="M644.4,194.6c-0.7,0-1.3-0.6-1.3-1.3c0-0.7,0.6-1.3,1.3-1.3h17.1c2.9,0,5.3-2.4,5.3-5.3v-1.3
				c0-0.7,0.6-1.3,1.3-1.3c0.7,0,1.3,0.6,1.3,1.3v1.3c0,4.4-3.5,7.9-7.9,7.9L644.4,194.6z"/>
		</g>
		<g>
			<path class="st5" d="M764.3,182c-0.9,0-1.6,0.7-1.6,1.6c0,0.9,0.7,1.6,1.6,1.6c0.9,0,1.6-0.7,1.6-1.6c0-0.4-0.2-0.8-0.5-1.1
				C765.1,182.1,764.7,182,764.3,182z"/>
			<path class="st5" d="M773,175.7L773,175.7c-0.1-0.5-0.4-0.8-0.9-0.9c-1.8-0.4-4.5,0-7.6,1.3c-2.9,1.1-5.6,2.8-7.9,5
				c-0.6,0.6-1.2,1.3-1.7,2c-1.2-0.1-2.4,0.1-3.4,0.6c-3.4,1.5-4.4,5.3-4.6,6.9c-0.1,0.8,0.4,1.6,1.2,1.7c0.1,0,0.3,0,0.4,0h0
				l3.8-0.4c0,0,0,0.1,0,0.1c0,0.5,0.3,0.9,0.6,1.2l1.8,1.8c0.3,0.3,0.8,0.5,1.2,0.6l0.1,0l-0.4,3.8v0c-0.1,0.8,0.5,1.5,1.3,1.6l0,0
				c0,0,0.1,0,0.1,0c0.1,0,0.2,0,0.2,0c1.6-0.3,5.4-1.2,6.9-4.6c0.4-1.1,0.6-2.3,0.6-3.4c0.7-0.5,1.4-1.1,2-1.7
				c2.2-2.3,3.9-4.9,5-7.9C773,180.3,773.4,177.5,773,175.7z M766.7,186c-1.3,1.4-3.5,1.4-4.9,0c-1.4-1.3-1.4-3.5,0-4.9
				c1.3-1.4,3.5-1.4,4.9,0l0,0l0,0C768.1,182.4,768.1,184.6,766.7,186L766.7,186L766.7,186z"/>
			<path class="st5" d="M754.4,195.5c-0.2,0-0.5,0-0.6,0.2c-0.4,0.3-0.8,0.5-1.1,0.8c-0.4,0.3-1,0.1-1.2-0.3c-0.2-0.3-0.2-0.6,0-0.9
				l0.7-1.2c0.3-0.4,0.2-1-0.2-1.3c-0.2-0.1-0.4-0.2-0.6-0.2c-0.8,0.1-1.5,0.5-2.1,1c-0.2,0.2-0.9,0.9-1.2,3.4
				c-0.1,0.7-0.2,1.4-0.2,2.2c0,0.5,0.4,1,0.9,1l0,0c0,0,0,0,0,0h0c0.7,0,1.4-0.1,2.2-0.2c2.5-0.4,3.2-1,3.4-1.2
				c0.6-0.6,0.9-1.3,1-2.1C755.3,196,755,195.5,754.4,195.5z"/>
		</g>
	</g>
	<g>
		<polygon class="st11" points="858.9,325.9 853.9,328.6 857.1,339 862.1,339.5 864.8,333.6 		"/>
		<polygon class="st11" points="874.3,346.7 874.3,351.7 882,351.2 881.9,347.1 		"/>
		<polygon class="st1" points="857.1,266.2 859.8,300.1 868.4,349.9 882,348 877.5,308.7 879.3,272.5 		"/>
		<path class="st1" d="M893.3,240.9l-32.6,0.5l-3.6,24.9l22.2,10.4l5.4,19.9l-27.6,29.4l10.9,13.6c0,0,15.4-20.8,26.7-32.6
			c11.3-11.8,5.9-47.5,5.9-47.5L893.3,240.9z"/>
		<circle class="st11" cx="873.8" cy="166.7" r="9.9"/>
		<path class="st11" d="M870.2,173.5v9.9l6.8,10.9c0,0,10.4-7.7,8.1-9.5s-2.7-15.8-2.7-15.8L870.2,173.5z"/>
		<polygon class="st12" points="870.2,181.6 863.4,189.8 866.2,246.3 887.4,245.9 891,196.6 886.5,183.9 883.4,179.7 877.9,188 		
			"/>
		<path class="st1" d="M859.4,211l-5,19l5,19l-8.1,10.9l-7.2-34.4c0,0,5.4-28,5.9-31.2c0.5-3.2,1.4-3.6,1.4-3.6l3.6,0.5L859.4,211z"
			/>
		<polygon class="st1" points="895.5,218.3 898.7,224.1 899.6,234.1 897.8,245.4 904.1,255.8 910.5,227.3 903.7,190.7 901,190.7 		
			"/>
		<path class="st1" d="M857.1,325.4c0,0-6.3,1.8-8.6,2.3c-2.3,0.5,1.4,9,1.4,9s2.3,11.8,2.7,14c0.5,2.3,3.6,9.9,7.7,10.9
			s1.4-15.8,1.4-15.8s1.8-5.4,1.8-7.2s-2.7-0.9-2.7-0.9C853.5,336.7,857.1,325.4,857.1,325.4z"/>
		<path class="st1" d="M872,360.3c0.5,2.7-0.5,2.7,6.8,3.6c7.2,0.9,5.4-5,5.4-5c-0.3-2.8-0.9-5.5-1.8-8.1c-1.4-3.6-8.6,0.9-8.6,0.9
			S871.6,357.5,872,360.3z"/>
		<path class="st1" d="M882.4,169.3l0.2,4c0,0,2.9-6.6,3.4-13.4c0.5-6.8-7.2-8.1-11.8-8.6c-4.5-0.5-12.2,2.7-12.2,6.3
			c0,3.6,8.1,2.7,11.3,1.8c3.2-0.9,4.5,6.8,4.5,6.8l1.8,0.5L882.4,169.3z"/>
		<polygon class="st12" points="867.6,184.8 870.2,181.6 877.9,188 870.2,193.4 		"/>
		<polygon class="st12" points="886.5,183.9 883.3,179.8 877.9,188 884.7,192.9 		"/>
		<path class="st1" d="M858,217.4l1.8,17.2l-3.6,10.4l-2.3,9.9c0,0,0,9.5,9,9.9c9,0.5,16.7-28.5,16.7-28.5s1.4,6.3,2.3,9.9
			c0.9,3.6,16.3,18.1,16.3,18.1s3.6-0.5,6.8-7.7c3.2-7.2-6.3-14-6.3-14l-2.7-9.5l0.9-11.8l6.3-30.7l-18.8-9.7l2,26l-6.8,20.3
			l-10.2-45l-3.4,2.5l-14.5,5.9L858,217.4z"/>
	</g>
</g>
<g>
	<path class="st2" d="M417.5,579.1c14.4,19.3,44.4,21.3,44.4,21.3s6.6-29.3-7.9-48.6s-44.4-21.3-44.4-21.3S403.1,559.7,417.5,579.1z
		"/>
	<path class="st2" d="M491,586.3c-9.5,12.7-29.3,14.1-29.3,14.1s-4.3-19.3,5.2-32.1s29.3-14.1,29.3-14.1S500.5,573.6,491,586.3z"/>
</g>
</svg>
