<svg xmlns="http://www.w3.org/2000/svg" data-name="Layer 1" viewBox="0 0 168 168"><circle cx="2" cy="149.5" r="2" fill="#2d4356"/><path fill="#2d4356" d="M11,147.5H8a2,2,0,0,0,0,4h3a2,2,0,0,0,0-4Z"/><path fill="#0bceb2" d="M118.15387 155.5h-8.30774a2.00641 2.00641 0 0 0 0 4h8.30774a2.00641 2.00641 0 0 0 0-4zM58.15387 155.5H49.84613a2.00641 2.00641 0 0 0 0 4h8.30774a2.00641 2.00641 0 0 0 0-4zM104 155.5H64a2 2 0 0 0 0 4H79.94v2H72a2 2 0 0 0 0 4H97a2 2 0 0 0 0-4H88.06v-2H104a2 2 0 0 0 0-4z"/><path fill="#2d4356" d="M59,51.79V46.5a1.99555,1.99555,0,0,0-1.01-1.74l-14-8A2.00375,2.00375,0,0,0,41,38.5V59.97l-8-6.43V37.21a7,7,0,1,0-4,0V54.5a2.00688,2.00688,0,0,0,.75,1.56l11,8.83a1.3774,1.3774,0,0,0,.25.17V86.5a1.98822,1.98822,0,0,0,.48,1.3L47,94.24v16.55a7,7,0,1,0,4,0V93.5a1.98822,1.98822,0,0,0-.48-1.3L45,85.76V41.95l10,5.71v4.13a7,7,0,1,0,4,0ZM28,30.5a3,3,0,1,1,3,3A2.996,2.996,0,0,1,28,30.5Zm24,87a3,3,0,1,1-3-3A2.996,2.996,0,0,1,52,117.5Zm5-56a3,3,0,1,1,3-3A2.996,2.996,0,0,1,57,61.5Z"/><path fill="#0bceb2" d="M77.41 53.09L70 45.67V30.5a2 2 0 0 0-4 0v16a1.9659 1.9659 0 0 0 .59 1.41L74 55.33V84.67l-15 15V85.21a7 7 0 1 0-4 0V104.5a2.00954 2.00954 0 0 0 1.23 1.85 2.06793 2.06793 0 0 0 .77.15 1.959 1.959 0 0 0 1.41-.59l19-19A1.9659 1.9659 0 0 0 78 85.5v-31A1.9659 1.9659 0 0 0 77.41 53.09zM57 81.5a3 3 0 1 1 3-3A2.996 2.996 0 0 1 57 81.5zM32 96.79V83.21a7 7 0 1 0-4 0V96.79a7 7 0 1 0 4 0zM27 76.5a3 3 0 1 1 3 3A2.996 2.996 0 0 1 27 76.5zm3 30a3 3 0 1 1 3-3A2.996 2.996 0 0 1 30 106.5z"/><path fill="#2d4356" d="M160,147.5h-3a2,2,0,0,0,0,4h3a2,2,0,0,0,0-4Z"/><circle cx="166" cy="149.5" r="2" fill="#2d4356"/><path fill="#2d4356" d="M150.72,147.5H128.46a10.61126,10.61126,0,0,0,2.22-6.49v-4.17l3.31-2.62006a1.99514,1.99514,0,0,0,.39-2.73l-2.51-3.51,3.99-1.39a2.00019,2.00019,0,0,0,1.24-2.53l-2.12-6.29h5.81a4.20527,4.20527,0,0,0,3.45-1.82,4.33556,4.33556,0,0,0,.48-3.98L136.2,89.31,138.63,84a1.968,1.968,0,0,0,.18-.83V72.09c-.63-15.12006-6.8-27.84-17.85-36.79A54.87044,54.87044,0,0,0,84.4,23.54a1.75374,1.75374,0,0,0-.4-.04H76a2.00591,2.00591,0,0,0-2,2v16a1.9659,1.9659,0,0,0,.59,1.41l8,8A1.9659,1.9659,0,0,0,84,51.5H96a1.9659,1.9659,0,0,0,1.41-.59l3.26-3.25a6.99312,6.99312,0,1,0-2.83-2.83L95.17,47.5H84.83L78,40.67V27.5h5.81a1.87226,1.87226,0,0,0,.58.04c17.8-.67,36.14,7.39,45,23.96h-6.68A7.001,7.001,0,1,0,114,60.21V78.5H99a2.00591,2.00591,0,0,0-2,2v11H81a1.9659,1.9659,0,0,0-1.41.59l-16,16A1.9659,1.9659,0,0,0,63,109.5v16.29a7,7,0,1,0,4,0V110.33L81.83,95.5H118a1.99993,1.99993,0,0,0,1.79-1.11l6-12a1.9436,1.9436,0,0,0,.21-.89v-7h8.81v8.24l-2.59,5.66a2.054,2.054,0,0,0-.06,1.54l8.82,23.45a.30473.30473,0,0,1-.03.29.19448.19448,0,0,1-.16.09H132.2a1.99593,1.99593,0,0,0-1.63.84,2.02188,2.02188,0,0,0-.27,1.8l2.38,7.05-4.65,1.62a1.96994,1.96994,0,0,0-1.25,1.28,1.99365,1.99365,0,0,0,.28,1.77l2.96,4.14-2.58,2.03a2.00532,2.00532,0,0,0-.76,1.57v5.14a6.53839,6.53839,0,0,1-3.16,5.63,6.12252,6.12252,0,0,1-3.11.86c-8.36,0-40.41-10.52-40.41-28v-4.17a2,2,0,0,0-4,0v4.17c0,13.8,15.03,23.13,27.94,28H17.28a2.0172,2.0172,0,1,0,0,4H150.72a2.0172,2.0172,0,1,0,0-4ZM104,38.5a3,3,0,1,1-3,3A2.996,2.996,0,0,1,104,38.5Zm-36,94a3,3,0,1,1-3-3A2.996,2.996,0,0,1,68,132.5Zm45-79a3,3,0,1,1,3,3A2.996,2.996,0,0,1,113,53.5Zm11,17a2.00591,2.00591,0,0,0-2,2v8.53L116.76,91.5H101v-9h15a1.99947,1.99947,0,0,0,2-2V60.21a7.07729,7.07729,0,0,0,4.71-4.71h8.56a48.37284,48.37284,0,0,1,3.43,15Z"/><path fill="#0bceb2" d="M103,58.5a7.059,7.059,0,0,0-3.33.84l-3.26-3.25A1.9659,1.9659,0,0,0,95,55.5H84a2.00591,2.00591,0,0,0-2,2v16a2.022,2.022,0,0,0,.7,1.52l6.3,5.4V91.5h4v-12a1.98805,1.98805,0,0,0-.7-1.52L86,72.58V59.5h8.17l2.67,2.67A7.00174,7.00174,0,1,0,103,58.5Zm0,10a3,3,0,1,1,3-3A2.996,2.996,0,0,1,103,68.5Z"/><path fill="#2d4356" d="M54 30.5a3 3 0 1 0-3-3A3.00344 3.00344 0 0 0 54 30.5zM54 26a1.5 1.5 0 1 1-1.5 1.5A1.50148 1.50148 0 0 1 54 26zM148.8564 44.5a2 2 0 1 0 2 2A2.00229 2.00229 0 0 0 148.8564 44.5zm0 3a1 1 0 1 1 1-1A1.001 1.001 0 0 1 148.8564 47.5zM132.7 23.5a2 2 0 1 0 2 2A2.00229 2.00229 0 0 0 132.7 23.5zm0 3a1 1 0 1 1 1-1A1.001 1.001 0 0 1 132.7 26.5zM149.8564 2.5a2 2 0 1 0 2 2A2.00229 2.00229 0 0 0 149.8564 2.5zm0 3a1 1 0 1 1 1-1A1.001 1.001 0 0 1 149.8564 5.5zM11.69529 48.5a2 2 0 1 0-2 2A2.00229 2.00229 0 0 0 11.69529 48.5zm-3 0a1 1 0 1 1 1 1A1.001 1.001 0 0 1 8.69529 48.5z"/><polygon fill="#0bceb2" points="8.111 11.765 9.597 9.81 8.658 9.278 7.704 11.468 7.672 11.468 6.703 9.293 5.747 9.841 7.219 11.75 7.219 11.781 4.918 11.484 4.918 12.548 7.234 12.251 7.234 12.282 5.747 14.19 6.639 14.754 7.657 12.548 7.688 12.548 8.627 14.738 9.613 14.175 8.111 12.297 8.111 12.266 10.473 12.548 10.473 11.484 8.111 11.797 8.111 11.765"/><polygon fill="#0bceb2" points="38.334 6.23 37.478 7.329 37.991 7.654 38.577 6.383 38.595 6.383 39.136 7.644 39.704 7.32 38.839 6.239 38.839 6.221 40.199 6.383 40.199 5.77 38.839 5.95 38.839 5.932 39.695 4.806 39.154 4.5 38.604 5.761 38.586 5.761 38.028 4.509 37.478 4.824 38.325 5.924 38.325 5.942 37 5.77 37 6.383 38.334 6.212 38.334 6.23"/><polygon fill="#0bceb2" points="163.029 29.021 163.029 27.978 160.712 28.285 160.712 28.254 162.17 26.336 161.249 25.814 160.313 27.962 160.282 27.962 159.331 25.829 158.394 26.367 159.837 28.239 159.837 28.27 157.581 27.978 157.581 29.021 159.852 28.73 159.852 28.761 158.394 30.633 159.269 31.186 160.267 29.021 160.297 29.021 161.218 31.17 162.185 30.618 160.712 28.776 160.712 28.745 163.029 29.021"/><polygon fill="#0bceb2" points="80.701 13.288 81.959 11.633 81.165 11.183 80.357 13.036 80.33 13.036 79.51 11.196 78.702 11.66 79.947 13.275 79.947 13.301 78 13.05 78 13.95 79.96 13.699 79.96 13.725 78.702 15.34 79.456 15.817 80.317 13.95 80.343 13.95 81.138 15.803 81.972 15.327 80.701 13.738 80.701 13.712 82.7 13.95 82.7 13.05 80.701 13.314 80.701 13.288"/></svg>