<svg id="Layer_1" data-name="Layer 1" xmlns="http://www.w3.org/2000/svg" viewBox="0 0 185.4 36">
  <defs>
    <style>
      .cls-1 {
        fill: #231f20;
      }
    </style>
  </defs>
  <title>mockback_black</title>
  <g>
    <path class="cls-1" d="M2,1.52l18.05,18,18-18v36H32.15V16L20.09,28,2,9.89Z" transform="translate(-2.04 -1.52)"/>
    <path class="cls-1" d="M75.66,6.83A17.19,17.19,0,0,1,81,19.52a17,17,0,0,1-5.36,12.69,17.82,17.82,0,0,1-25.38,0A17.26,17.26,0,0,1,45,19.52,17.34,17.34,0,0,1,50.28,6.83a17.82,17.82,0,0,1,25.38,0ZM54.47,11.06A11.53,11.53,0,0,0,51,19.52a11.83,11.83,0,0,0,12,12A11.5,11.5,0,0,0,71.43,28a11.54,11.54,0,0,0,3.51-8.51,11.56,11.56,0,0,0-3.51-8.46,12,12,0,0,0-17,0Z" transform="translate(-2.04 -1.52)"/>
    <path class="cls-1" d="M93.71,32.21a18.59,18.59,0,0,1-3.87-5.76,17.28,17.28,0,0,1-1.44-6.93,17.6,17.6,0,0,1,1.44-7,18.3,18.3,0,0,1,3.87-5.67A18.08,18.08,0,0,1,99.47,3a17.35,17.35,0,0,1,7-1.44,17.17,17.17,0,0,1,7,1.4,18.71,18.71,0,0,1,5.76,3.91L114.9,11a11.65,11.65,0,0,0-8.46-3.47,12.5,12.5,0,0,0-4.68.9,11.44,11.44,0,0,0-3.82,2.61,12.23,12.23,0,0,0-2.57,3.78A11.79,11.79,0,0,0,98,28a11.53,11.53,0,0,0,3.78,2.61,12.49,12.49,0,0,0,4.68.9l7,4.64a17.9,17.9,0,0,1-14-.05A18.59,18.59,0,0,1,93.71,32.21Z" transform="translate(-2.04 -1.52)"/>
    <path class="cls-1" d="M117.87,19.52l18,18h-8.46L111.84,22l-2.52-2.47,2.52-2.52L127.41,1.52h8.46Zm-6-2.47L127.41,1.52Zm15.57,20.47L111.84,22Z" transform="translate(-2.04 -1.52)"/>
    <path class="cls-1" d="M160.26,1.52v6h-18l-6-6Zm-18,15h18v6h-24v-6Zm0,14.94h18v6h-24V37Z" transform="translate(-2.04 -1.52)"/>
    <path class="cls-1" d="M180.06,24.61l7.38,12.91h-6.88l-10.44-18,5.35,0a5.72,5.72,0,0,0,4.19-1.75,5.73,5.73,0,0,0,1.8-4.28,5.6,5.6,0,0,0-1.8-4.18,5.73,5.73,0,0,0-4.19-1.76h-12l-.68-.67-3.1-5.36h15.79A11.55,11.55,0,0,1,183.93,5a11.64,11.64,0,0,1,3.51,8.46,11.4,11.4,0,0,1-2.11,6.8A11.68,11.68,0,0,1,180.06,24.61Z" transform="translate(-2.04 -1.52)"/>
  </g>
</svg>
