<?xml version="1.0" encoding="utf-8"?>
<!-- Generator: Adobe Illustrator 23.0.2, SVG Export Plug-In . SVG Version: 6.00 Build 0)  -->
<svg version="1.1" id="Layer_1" xmlns="http://www.w3.org/2000/svg" xmlns:xlink="http://www.w3.org/1999/xlink" x="0px" y="0px"
	 viewBox="0 0 96.4 96.4" style="enable-background:new 0 0 96.4 96.4;" xml:space="preserve">
<style type="text/css">
	.st0{fill:#D43747;}
	.st1{fill:#231F20;}
</style>
<g>
	<path class="st0" d="M7.2,77.4c-0.8,0-1.6-0.2-2.3-0.6c-0.7-0.4-1.1-1-1.1-1.8V22.2c0-1.2,0.4-2.1,1.1-2.6c0.7-0.5,1.5-0.7,2.3-0.7
		c0.9,0,1.6,0.2,2.2,0.5c0.6,0.3,1.2,0.8,1.7,1.4c0.5,0.6,1,1.4,1.5,2.4l12.6,24.1l12.6-24.1c0.5-1,1.1-1.7,1.6-2.4
		c0.5-0.6,1.1-1.1,1.7-1.4c0.6-0.3,1.3-0.5,2.1-0.5c0.9,0,1.7,0.2,2.4,0.7c0.7,0.5,1,1.3,1,2.6V75c0,0.8-0.3,1.4-1,1.8
		c-0.7,0.4-1.5,0.6-2.3,0.6c-0.9,0-1.6-0.2-2.3-0.6c-0.7-0.4-1-1-1-1.8V33L27.7,55.7c-0.4,0.6-0.8,1.1-1.2,1.4
		c-0.4,0.3-0.9,0.4-1.4,0.4c-0.4,0-0.8-0.1-1.2-0.4c-0.5-0.3-0.9-0.7-1.2-1.4l-12.1-23V75c0,0.8-0.3,1.4-1,1.8
		C8.9,77.2,8.1,77.4,7.2,77.4z"/>
	<path class="st1" d="M61.1,77.4c-0.9,0-1.6-0.2-2.2-0.7s-0.8-1-0.8-1.6V21.3c0-0.8,0.3-1.4,1-1.8c0.6-0.4,1.3-0.6,2.1-0.6h13.8
		c2.9,0,5.6,0.4,8.1,1.1c2.5,0.7,4.5,2.1,5.9,4c1.5,2,2.2,4.8,2.2,8.6c0,3.4-0.6,6.2-1.8,8.4c-1.2,2.2-2.9,3.8-5,4.7
		c1.7,0.6,3.1,1.5,4.3,2.6c1.2,1.1,2.2,2.5,2.9,4.2c0.7,1.7,1,4,1,6.8v1.4c0,4.1-0.7,7.4-2.1,9.8c-1.4,2.4-3.3,4.2-5.7,5.2
		c-2.4,1.1-5.1,1.6-8.1,1.6H61.1z M64.7,42.9h10c3.3,0,5.7-0.7,7.3-2.2c1.5-1.5,2.3-3.9,2.3-7.2c0-2.2-0.4-3.9-1.2-5.2
		c-0.8-1.3-2-2.1-3.4-2.6c-1.5-0.5-3.2-0.8-5.2-0.8h-9.8V42.9z M64.7,71.3h10.8c3.3,0,5.8-0.9,7.6-2.6c1.8-1.8,2.7-4.5,2.7-8.3V59
		c0-3.8-0.9-6.5-2.7-8.1c-1.8-1.6-4.3-2.4-7.6-2.4H64.7V71.3z"/>
</g>
</svg>
