<?xml version="1.0" encoding="utf-8"?>
<!-- Generator: Adobe Illustrator 23.0.2, SVG Export Plug-In . SVG Version: 6.00 Build 0)  -->
<svg version="1.1" id="Layer_1" xmlns="http://www.w3.org/2000/svg" xmlns:xlink="http://www.w3.org/1999/xlink" x="0px" y="0px"
	 viewBox="0 0 356.3 73.9" style="enable-background:new 0 0 356.3 73.9;" xml:space="preserve">
<style type="text/css">
	.st0{fill:#D43747;}
	.st1{fill:#FFFFFF;}
</style>
<g>
	<path class="st0" d="M8.3,66.2c-0.7,0-1.3-0.2-1.8-0.5c-0.5-0.3-0.8-0.9-0.8-1.6V10.3c0-1,0.3-1.6,0.8-2C7,7.9,7.6,7.7,8.3,7.7
		c0.6,0,1.2,0.2,1.7,0.5c0.5,0.3,1,0.8,1.4,1.4c0.4,0.6,0.8,1.2,1.1,1.9l13.8,26.5L40,11.5c0.4-0.7,0.8-1.3,1.2-1.9
		c0.4-0.6,0.9-1,1.4-1.4c0.5-0.3,1.1-0.5,1.7-0.5c0.7,0,1.4,0.2,1.9,0.6c0.5,0.4,0.8,1,0.8,2v53.8c0,0.7-0.3,1.2-0.8,1.6
		c-0.5,0.3-1.1,0.5-1.8,0.5c-0.6,0-1.2-0.2-1.8-0.5s-0.8-0.9-0.8-1.6v-45L28.4,44.3c-0.3,0.6-0.7,1.1-1,1.4C27,45.9,26.6,46,26.2,46
		c-0.3,0-0.7-0.1-1-0.4c-0.4-0.3-0.7-0.7-1.1-1.4L10.9,19v45.1c0,0.7-0.3,1.2-0.8,1.6S8.9,66.2,8.3,66.2z"/>
	<path class="st0" d="M75.1,66.7c-3.1,0-5.9-0.6-8.4-1.7c-2.5-1.1-4.5-2.9-6-5.4c-1.5-2.5-2.2-5.8-2.2-10V24.8c0-4.2,0.7-7.5,2.2-10
		c1.5-2.5,3.5-4.3,6-5.4c2.5-1.1,5.3-1.7,8.4-1.7c3.1,0,6,0.6,8.5,1.7c2.5,1.1,4.5,2.9,6,5.4c1.5,2.5,2.2,5.8,2.2,10v24.7
		c0,4.2-0.7,7.5-2.2,10c-1.5,2.5-3.5,4.3-6,5.4C81.1,66.1,78.2,66.7,75.1,66.7z M75.1,61.8c3.6,0,6.4-1,8.4-3c2-2,3-5.1,3-9.3V24.8
		c0-4.2-1-7.3-3-9.3c-2-2-4.8-3-8.3-3c-3.6,0-6.3,1-8.3,3c-2,2-3,5.1-3,9.3v24.7c0,4.2,1,7.3,3,9.3C68.8,60.8,71.6,61.8,75.1,61.8z"
		/>
	<path class="st0" d="M119.3,66.7c-3,0-5.8-0.6-8.3-1.7c-2.6-1.1-4.6-2.9-6.1-5.4s-2.2-5.8-2.2-10V24.8c0-4.2,0.8-7.5,2.3-10
		c1.5-2.5,3.6-4.3,6.1-5.4c2.5-1.1,5.3-1.7,8.4-1.7c3.5,0,6.5,0.6,9,1.8c2.5,1.2,4.3,2.9,5.6,4.9c1.3,2,2,4.3,2,6.7
		c0,1.3-0.2,2.1-0.7,2.5c-0.5,0.4-1.1,0.6-2,0.6c-1,0-1.6-0.2-2-0.6c-0.4-0.4-0.6-0.9-0.7-1.4c0-0.9-0.1-1.8-0.4-2.9
		c-0.3-1.1-0.8-2.2-1.6-3.2c-0.8-1-1.9-1.9-3.4-2.6c-1.5-0.7-3.4-1-5.7-1c-3.7,0-6.6,1-8.6,3c-2,2-3,5.1-3,9.2v24.7
		c0,4.2,1,7.3,3,9.3c2,2,4.9,3,8.8,3c2.4,0,4.3-0.3,5.7-1c1.4-0.7,2.4-1.5,3.1-2.5c0.7-1,1.2-2.1,1.5-3.2c0.3-1.1,0.5-2.2,0.6-3.2
		c0.1-0.7,0.4-1.2,0.8-1.6c0.4-0.3,1-0.5,1.9-0.5c0.9,0,1.6,0.2,2,0.7c0.5,0.5,0.7,1.3,0.7,2.6c0,2.4-0.7,4.6-2,6.7
		c-1.3,2.1-3.2,3.7-5.7,5C125.9,66,122.9,66.7,119.3,66.7z"/>
	<path class="st0" d="M148,66.2c-0.7,0-1.3-0.2-1.8-0.5c-0.5-0.3-0.8-0.9-0.8-1.6V9.7c0-0.7,0.3-1.2,0.8-1.5
		c0.5-0.3,1.1-0.5,1.8-0.5c0.6,0,1.2,0.2,1.8,0.5c0.6,0.3,0.8,0.8,0.8,1.5v28.2l23.1-29.4c0.4-0.5,0.9-0.8,1.6-0.8
		c0.5,0,0.9,0.1,1.4,0.4c0.5,0.3,0.8,0.6,1.1,1c0.3,0.4,0.4,0.9,0.4,1.3c0,0.2,0,0.4-0.1,0.6c-0.1,0.2-0.2,0.4-0.3,0.6L160.7,33
		l19.7,29.6c0.2,0.3,0.3,0.7,0.3,1c0,0.5-0.1,0.9-0.4,1.3c-0.3,0.4-0.7,0.7-1.1,1c-0.5,0.3-0.9,0.4-1.5,0.4c-0.4,0-0.7-0.1-1.1-0.3
		c-0.3-0.2-0.7-0.5-0.9-0.9l-18.5-27.7l-6.6,8.2v18.4c0,0.7-0.3,1.2-0.8,1.6C149.2,66,148.6,66.2,148,66.2z"/>
	<path class="st1" d="M189.6,66.2c-0.7,0-1.3-0.2-1.8-0.6c-0.4-0.4-0.6-0.9-0.6-1.4V9.8c0-0.7,0.3-1.2,0.8-1.6
		c0.5-0.3,1.1-0.5,1.6-0.5h13.1c3,0,5.7,0.3,8.2,1c2.5,0.7,4.5,2,5.9,4c1.5,2,2.2,4.8,2.2,8.6c0,3.4-0.6,6.2-1.9,8.4
		c-1.3,2.3-2.9,3.9-4.9,4.8c1.7,0.6,3.1,1.5,4.3,2.6c1.2,1.1,2.2,2.6,2.9,4.3c0.7,1.8,1,4,1,6.8v1.4c0,4.1-0.7,7.3-2.1,9.7
		c-1.4,2.4-3.3,4.1-5.7,5.2c-2.4,1.1-5.1,1.6-8,1.6H189.6z M192.5,32.2h10.4c3.7,0,6.5-0.8,8.2-2.3c1.8-1.5,2.6-4.2,2.6-8
		c0-2.5-0.5-4.4-1.4-5.8c-1-1.3-2.3-2.3-3.9-2.8c-1.7-0.5-3.6-0.8-5.8-0.8h-10.1V32.2z M192.5,61.3H204c3.5,0,6.2-0.9,8.2-2.8
		c2-1.9,3-4.9,3-9v-1.4c0-4.2-1-7.1-3-8.8s-4.7-2.5-8.2-2.5h-11.5V61.3z"/>
	<path class="st1" d="M228.8,66.2c-0.4,0-0.9-0.1-1.4-0.3c-0.5-0.2-0.9-0.5-1.2-0.8c-0.3-0.3-0.5-0.7-0.5-1.2c0-0.2,0-0.4,0.1-0.6
		l16.7-54.2c0.2-0.7,0.6-1.2,1.2-1.5s1.2-0.4,1.9-0.4c0.7,0,1.4,0.2,2,0.5c0.6,0.3,1,0.8,1.2,1.4l16.6,54.2c0.1,0.2,0.1,0.3,0.1,0.5
		c0,0.4-0.2,0.8-0.5,1.2c-0.3,0.3-0.7,0.6-1.2,0.8c-0.5,0.2-1,0.3-1.5,0.3c-0.4,0-0.8-0.1-1.2-0.3c-0.4-0.2-0.6-0.6-0.8-1l-3.7-12.3
		h-22.1l-3.7,12.3c-0.2,0.5-0.4,0.8-0.8,1C229.8,66.1,229.3,66.2,228.8,66.2z M235.9,47.9h19.4l-9.7-32.2L235.9,47.9z"/>
	<path class="st1" d="M289.3,66.7c-3,0-5.8-0.6-8.3-1.7c-2.6-1.1-4.6-2.9-6.1-5.4s-2.2-5.8-2.2-10V24.8c0-4.2,0.8-7.5,2.3-10
		c1.5-2.5,3.6-4.3,6.1-5.4c2.5-1.1,5.3-1.7,8.4-1.7c3.5,0,6.5,0.6,9,1.8c2.5,1.2,4.3,2.9,5.6,4.9c1.3,2,2,4.3,2,6.7
		c0,1.3-0.2,2.1-0.7,2.5c-0.5,0.4-1.1,0.6-2,0.6c-1,0-1.6-0.2-2-0.6c-0.4-0.4-0.6-0.9-0.7-1.4c0-0.9-0.1-1.8-0.4-2.9
		c-0.3-1.1-0.8-2.2-1.6-3.2c-0.8-1-1.9-1.9-3.4-2.6c-1.5-0.7-3.4-1-5.7-1c-3.7,0-6.6,1-8.6,3c-2,2-3,5.1-3,9.2v24.7
		c0,4.2,1,7.3,3,9.3c2,2,4.9,3,8.8,3c2.4,0,4.3-0.3,5.7-1c1.4-0.7,2.4-1.5,3.1-2.5c0.7-1,1.2-2.1,1.5-3.2c0.3-1.1,0.5-2.2,0.6-3.2
		c0.1-0.7,0.4-1.2,0.8-1.6c0.4-0.3,1-0.5,1.9-0.5c0.9,0,1.6,0.2,2,0.7c0.5,0.5,0.7,1.3,0.7,2.6c0,2.4-0.7,4.6-2,6.7
		c-1.3,2.1-3.2,3.7-5.7,5C295.8,66,292.8,66.7,289.3,66.7z"/>
	<path class="st1" d="M317.9,66.2c-0.7,0-1.3-0.2-1.8-0.5c-0.5-0.3-0.8-0.9-0.8-1.6V9.7c0-0.7,0.3-1.2,0.8-1.5
		c0.5-0.3,1.1-0.5,1.8-0.5c0.6,0,1.2,0.2,1.8,0.5c0.6,0.3,0.8,0.8,0.8,1.5v28.2l23.1-29.4c0.4-0.5,0.9-0.8,1.6-0.8
		c0.5,0,0.9,0.1,1.4,0.4c0.5,0.3,0.8,0.6,1.1,1c0.3,0.4,0.4,0.9,0.4,1.3c0,0.2,0,0.4-0.1,0.6c-0.1,0.2-0.2,0.4-0.3,0.6L330.6,33
		l19.7,29.6c0.2,0.3,0.3,0.7,0.3,1c0,0.5-0.1,0.9-0.4,1.3c-0.3,0.4-0.7,0.7-1.1,1c-0.5,0.3-0.9,0.4-1.5,0.4c-0.4,0-0.7-0.1-1.1-0.3
		c-0.3-0.2-0.7-0.5-0.9-0.9l-18.5-27.7l-6.6,8.2v18.4c0,0.7-0.3,1.2-0.8,1.6C319.1,66,318.5,66.2,317.9,66.2z"/>
</g>
</svg>
