<?xml version="1.0" encoding="utf-8"?>
<!-- Generator: Adobe Illustrator 23.0.2, SVG Export Plug-In . SVG Version: 6.00 Build 0)  -->
<svg version="1.1" id="Layer_1" xmlns="http://www.w3.org/2000/svg" xmlns:xlink="http://www.w3.org/1999/xlink" x="0px" y="0px"
	 viewBox="0 0 1920 1080" style="enable-background:new 0 0 1920 1080;" xml:space="preserve">
<style type="text/css">
	.st0{opacity:0.46;clip-path:url(#SVGID_2_);}
	.st1{opacity:0.2;}
	.st2{fill:#C6CDC9;}
</style>
<g>
	<g>
		<defs>
			<rect id="SVGID_1_" width="1920" height="1080"/>
		</defs>
		<clipPath id="SVGID_2_">
			<use xlink:href="#SVGID_1_"  style="overflow:visible;"/>
		</clipPath>
		<g class="st0">
			<g class="st1">
				
					<rect x="-1135" y="242" transform="matrix(0.756 -0.6546 0.6546 0.756 -219.0817 37.3084)" class="st2" width="2151" height="141"/>
			</g>
			<g class="st1">
				
					<rect x="-726" y="298" transform="matrix(0.756 -0.6546 0.6546 0.756 -155.9341 318.7048)" class="st2" width="2151" height="141"/>
			</g>
			<g class="st1">
				
					<rect x="-430" y="479" transform="matrix(0.756 -0.6546 0.6546 0.756 -202.186 556.6344)" class="st2" width="2151" height="141"/>
			</g>
			<g class="st1">
				
					<rect x="-21" y="535" transform="matrix(0.756 -0.6546 0.6546 0.756 -139.0385 838.0309)" class="st2" width="2151" height="141"/>
			</g>
			<g class="st1">
				
					<rect x="167" y="824" transform="matrix(0.756 -0.6546 0.6546 0.756 -282.3416 1031.6182)" class="st2" width="2151" height="141"/>
			</g>
			<g class="st1">
				
					<rect x="576" y="880" transform="matrix(0.756 -0.6546 0.6546 0.756 -219.194 1313.0146)" class="st2" width="2151" height="141"/>
			</g>
		</g>
	</g>
</g>
</svg>
